<svg width="16" height="16" viewBox="0 0 16 16" fill="none" xmlns="http://www.w3.org/2000/svg">
<g clip-path="url(#clip0_34_111)">
<path d="M15.3321 2.61402C15.2182 2.51157 15.0852 2.43256 14.9408 2.3815C14.7963 2.33045 14.6433 2.30836 14.4903 2.31648C14.3373 2.32461 14.1874 2.36279 14.0492 2.42886C13.911 2.49493 13.7871 2.58758 13.6847 2.70152L5.65361 11.6331L2.96514 8.22345C2.87029 8.10315 2.75267 8.00272 2.619 7.92787C2.48533 7.85303 2.33823 7.80525 2.18609 7.78726C1.87885 7.75092 1.56975 7.83812 1.32679 8.02969C1.08384 8.22125 0.926936 8.50148 0.890599 8.80873C0.854262 9.11598 0.941467 9.42508 1.13303 9.66803L4.66304 14.1447C4.66304 14.1447 4.76557 14.2656 4.81485 14.31C4.92875 14.4125 5.06175 14.4916 5.20622 14.5427C5.3507 14.5938 5.50383 14.6159 5.65686 14.6078C5.80989 14.5997 5.95982 14.5615 6.09808 14.4954C6.23633 14.4293 6.36021 14.3366 6.46263 14.2226L15.4196 4.26142C15.5221 4.14752 15.6011 4.01455 15.6521 3.8701C15.7032 3.72566 15.7253 3.57258 15.7171 3.41959C15.709 3.26661 15.6708 3.11672 15.6048 2.9785C15.5387 2.84028 15.446 2.71643 15.3321 2.61402Z" fill="#E52E2E"/>
</g>
<defs>
<clipPath id="clip0_34_111">
<rect width="14" height="14" fill="white" transform="translate(2.17944 -0.00756836) rotate(8.98744)"/>
</clipPath>
</defs>
</svg>
