<svg aria-hidden="true" xmlns="http://www.w3.org/2000/svg" xmlns:xlink="http://www.w3.org/1999/xlink"><symbol viewBox="0 0 14 14" id="xmark-bold" xmlns="http://www.w3.org/2000/svg">
<path d="M12.8984 2.89844L8.75781 7L12.8984 11.1016C13.1328 11.362 13.25 11.6615 13.25 12C13.25 12.3385 13.1328 12.638 12.8984 12.8984C12.638 13.1328 12.3385 13.25 12 13.25C11.6615 13.25 11.362 13.1328 11.1016 12.8984L7 8.75781L2.89844 12.8984C2.63802 13.1328 2.33854 13.25 2 13.25C1.66146 13.25 1.36198 13.1328 1.10156 12.8984C0.867188 12.638 0.75 12.3385 0.75 12C0.75 11.6615 0.867188 11.362 1.10156 11.1016L5.24219 7L1.10156 2.89844C0.867188 2.63802 0.75 2.33854 0.75 2C0.75 1.66146 0.867188 1.36198 1.10156 1.10156C1.36198 0.867188 1.66146 0.75 2 0.75C2.33854 0.75 2.63802 0.867188 2.89844 1.10156L7 5.24219L11.1016 1.10156C11.362 0.867188 11.6615 0.75 12 0.75C12.3385 0.75 12.638 0.867188 12.8984 1.10156C13.1328 1.36198 13.25 1.66146 13.25 2C13.25 2.33854 13.1328 2.63802 12.8984 2.89844Z"/>
</symbol></svg>