<svg width="260" height="174" viewBox="0 0 260 174" fill="none" xmlns="http://www.w3.org/2000/svg">
<g clip-path="url(#clip0_202_1373)">
<path d="M0 0.5H260" stroke="#CCCCCC" stroke-dasharray="4 2"/>
<path d="M0 43.8301H260" stroke="#CCCCCC" stroke-dasharray="4 2"/>
<path d="M0 87.1599H260" stroke="#CCCCCC" stroke-dasharray="4 2"/>
<path d="M0 130.49H260" stroke="#CCCCCC" stroke-dasharray="4 2"/>
<path d="M0 173.82H260" stroke="#CCCCCC" stroke-dasharray="4 2"/>
<path d="M0.5 0V173" stroke="#CCCCCC" stroke-dasharray="4 2"/>
<path d="M43.667 0V173" stroke="#CCCCCC" stroke-dasharray="4 2"/>
<path d="M86.833 0V173" stroke="#CCCCCC" stroke-dasharray="4 2"/>
<path d="M130 0V173" stroke="#CCCCCC" stroke-dasharray="4 2"/>
<path d="M173.167 0V173" stroke="#CCCCCC" stroke-dasharray="4 2"/>
<path d="M216.333 0V173" stroke="#CCCCCC" stroke-dasharray="4 2"/>
<path d="M259.5 0V173" stroke="#CCCCCC" stroke-dasharray="4 2"/>
<path opacity="0.6" d="M0.000284195 110.5C-33.5003 110.5 -7.49956 161 -6.49956 189.5L270 188C273.834 141.333 274.9 18.5 260.5 18.5C224 18.5 242.5 65.5 216.5 65.5C190.5 65.5 206.5 31 173 31C139.5 31 156 124 130 124C104 124 116 65.5 86.5002 65.5C57.0002 65.5 74.5 149.5 43.5 149.5C20 149.5 27.9996 110.5 0.000284195 110.5Z" fill="#DD54A6"/>
<path opacity="0.6" d="M0.499926 133C-33.0007 133 -7.49963 171 -6.49963 199.5L270 198C273.834 151.333 274.4 98.5 260 98.5C223.5 98.5 243.5 116 217.5 116C191.5 116 196.5 137.5 173.5 137.5C150.5 137.5 156 95 130 95C104 95 116.5 119.5 87.0003 119.5C57.5003 119.5 74.5003 141 43.5003 141C20.0003 141 28.4992 133 0.499926 133Z" fill="#51B3F7"/>
</g>
<defs>
<clipPath id="clip0_202_1373">
<rect width="260" height="174" fill="white"/>
</clipPath>
</defs>
</svg>
