<svg width="174" height="174" viewBox="0 0 174 174" fill="none" xmlns="http://www.w3.org/2000/svg">
<path d="M173.375 97.4095C171.623 111.948 166.229 125.809 157.694 137.708L127.666 116.169C132.576 109.325 135.679 101.351 136.687 92.988L173.375 97.4095Z" fill="#F9D3AD"/>
<path d="M143.195 108.732L145.6 107.9H146.38V117H145.47V108.901L143.429 109.512L143.195 108.732ZM147.613 108.732L150.018 107.9H150.798V117H149.888V108.901L147.847 109.512L147.613 108.732ZM154.605 111.644C154.033 111.644 153.561 111.458 153.188 111.085C152.807 110.704 152.616 110.24 152.616 109.694C152.616 109.157 152.807 108.697 153.188 108.316C153.569 107.935 154.042 107.744 154.605 107.744C155.168 107.744 155.641 107.935 156.022 108.316C156.403 108.697 156.594 109.157 156.594 109.694C156.594 110.249 156.408 110.712 156.035 111.085C155.662 111.458 155.186 111.644 154.605 111.644ZM153.448 109.694C153.448 110.023 153.556 110.301 153.773 110.526C153.99 110.751 154.267 110.864 154.605 110.864C154.943 110.864 155.22 110.751 155.437 110.526C155.654 110.301 155.762 110.023 155.762 109.694C155.762 109.365 155.654 109.087 155.437 108.862C155.22 108.637 154.943 108.524 154.605 108.524C154.267 108.524 153.99 108.637 153.773 108.862C153.556 109.087 153.448 109.365 153.448 109.694ZM153.617 116.077L153.071 115.765L159.168 108.914L159.727 109.226L153.617 116.077ZM159.701 116.597C159.328 116.97 158.856 117.156 158.284 117.156C157.712 117.156 157.24 116.97 156.867 116.597C156.486 116.216 156.295 115.752 156.295 115.206C156.295 114.669 156.486 114.209 156.867 113.828C157.248 113.447 157.721 113.256 158.284 113.256C158.847 113.256 159.32 113.447 159.701 113.828C160.082 114.209 160.273 114.669 160.273 115.206C160.273 115.752 160.082 116.216 159.701 116.597ZM157.127 115.206C157.127 115.535 157.235 115.813 157.452 116.038C157.669 116.263 157.946 116.376 158.284 116.376C158.622 116.376 158.899 116.263 159.116 116.038C159.333 115.813 159.441 115.535 159.441 115.206C159.441 114.877 159.333 114.599 159.116 114.374C158.899 114.149 158.622 114.036 158.284 114.036C157.946 114.036 157.669 114.149 157.452 114.374C157.235 114.599 157.127 114.877 157.127 115.206Z" fill="white"/>
<path d="M151.97 144.861C138.428 160.067 119.982 170.041 99.8433 173.047C79.705 176.053 59.1503 171.9 41.7584 161.312C24.3666 150.723 11.2395 134.37 4.66297 115.1C-1.91355 95.8299 -1.52285 74.8635 5.76705 55.8518C13.057 36.8401 26.7842 20.9875 44.5585 11.0545C62.3327 1.12152 83.0279 -2.26259 103.04 1.49146C123.053 5.24551 141.114 15.8999 154.08 31.5993C167.046 47.2988 174.095 67.0487 173.999 87.4099L137.046 87.2358C137.101 75.5231 133.046 64.1621 125.588 55.1311C118.129 46.1001 107.739 39.9713 96.227 37.8118C84.7151 35.6523 72.8103 37.599 62.5858 43.3129C52.3613 49.0268 44.4648 58.1459 40.2713 69.0822C36.0778 80.0186 35.8531 92.0794 39.6362 103.164C43.4193 114.249 50.9706 123.656 60.9751 129.747C70.9796 135.838 82.8036 138.227 94.388 136.498C105.972 134.769 116.584 129.031 124.373 120.284L151.97 144.861Z" fill="#9CDB4D"/>
<path d="M18.096 64.307C18.564 64.5237 18.9323 64.827 19.201 65.217C19.4697 65.607 19.604 66.0447 19.604 66.53C19.604 67.3533 19.3137 67.999 18.733 68.467C18.1437 68.9263 17.42 69.156 16.562 69.156C15.704 69.156 14.9803 68.9263 14.391 68.467C13.8103 67.999 13.52 67.3533 13.52 66.53C13.52 66.0447 13.6543 65.607 13.923 65.217C14.1917 64.827 14.56 64.5237 15.028 64.307C14.222 63.8477 13.819 63.1673 13.819 62.266C13.819 61.4513 14.0877 60.8273 14.625 60.394C15.1797 59.9607 15.8253 59.744 16.562 59.744C17.3073 59.744 17.9487 59.9607 18.486 60.394C19.032 60.8273 19.305 61.4513 19.305 62.266C19.305 63.1673 18.902 63.8477 18.096 64.307ZM14.729 62.266C14.729 62.7687 14.9023 63.1673 15.249 63.462C15.6043 63.7567 16.042 63.904 16.562 63.904C17.082 63.904 17.5153 63.7567 17.862 63.462C18.2173 63.1673 18.395 62.7687 18.395 62.266C18.395 61.7373 18.226 61.3343 17.888 61.057C17.55 60.771 17.108 60.628 16.562 60.628C16.016 60.628 15.574 60.771 15.236 61.057C14.898 61.3343 14.729 61.7373 14.729 62.266ZM15.015 67.83C15.3963 68.1247 15.912 68.272 16.562 68.272C17.212 68.272 17.7277 68.1247 18.109 67.83C18.499 67.5267 18.694 67.0933 18.694 66.53C18.694 65.9753 18.499 65.5463 18.109 65.243C17.7103 64.9397 17.1947 64.788 16.562 64.788C15.9293 64.788 15.4137 64.9397 15.015 65.243C14.625 65.5463 14.43 65.9753 14.43 66.53C14.43 67.102 14.625 67.5353 15.015 67.83ZM26.6221 62.747C26.6221 63.4317 26.4357 64.0383 26.0631 64.567L23.0861 69H22.0591L24.2951 65.672C24.0611 65.724 23.8184 65.75 23.5671 65.75C22.6657 65.75 21.9334 65.4727 21.3701 64.918C20.7981 64.3633 20.5121 63.6397 20.5121 62.747C20.5121 61.8717 20.7981 61.1523 21.3701 60.589C21.9507 60.0257 22.6831 59.744 23.5671 59.744C24.4511 59.744 25.1834 60.0257 25.7641 60.589C26.3361 61.1523 26.6221 61.8717 26.6221 62.747ZM22.0071 61.213C21.6171 61.603 21.4221 62.1143 21.4221 62.747C21.4221 63.3797 21.6171 63.891 22.0071 64.281C22.4144 64.671 22.9344 64.866 23.5671 64.866C24.2084 64.866 24.7241 64.671 25.1141 64.281C25.5127 63.891 25.7121 63.3797 25.7121 62.747C25.7121 62.1143 25.5127 61.603 25.1141 61.213C24.7241 60.823 24.2084 60.628 23.5671 60.628C22.9344 60.628 22.4144 60.823 22.0071 61.213ZM29.7846 63.644C29.2126 63.644 28.7403 63.4577 28.3676 63.085C27.9863 62.7037 27.7956 62.24 27.7956 61.694C27.7956 61.1567 27.9863 60.6973 28.3676 60.316C28.749 59.9347 29.2213 59.744 29.7846 59.744C30.348 59.744 30.8203 59.9347 31.2016 60.316C31.583 60.6973 31.7736 61.1567 31.7736 61.694C31.7736 62.2487 31.5873 62.7123 31.2146 63.085C30.842 63.4577 30.3653 63.644 29.7846 63.644ZM28.6276 61.694C28.6276 62.0233 28.736 62.3007 28.9526 62.526C29.1693 62.7513 29.4466 62.864 29.7846 62.864C30.1226 62.864 30.4 62.7513 30.6166 62.526C30.8333 62.3007 30.9416 62.0233 30.9416 61.694C30.9416 61.3647 30.8333 61.0873 30.6166 60.862C30.4 60.6367 30.1226 60.524 29.7846 60.524C29.4466 60.524 29.1693 60.6367 28.9526 60.862C28.736 61.0873 28.6276 61.3647 28.6276 61.694ZM28.7966 68.077L28.2506 67.765L34.3476 60.914L34.9066 61.226L28.7966 68.077ZM34.8806 68.597C34.508 68.9697 34.0356 69.156 33.4636 69.156C32.8916 69.156 32.4193 68.9697 32.0466 68.597C31.6653 68.2157 31.4746 67.752 31.4746 67.206C31.4746 66.6687 31.6653 66.2093 32.0466 65.828C32.428 65.4467 32.9003 65.256 33.4636 65.256C34.027 65.256 34.4993 65.4467 34.8806 65.828C35.262 66.2093 35.4526 66.6687 35.4526 67.206C35.4526 67.752 35.262 68.2157 34.8806 68.597ZM32.3066 67.206C32.3066 67.5353 32.415 67.8127 32.6316 68.038C32.8483 68.2633 33.1256 68.376 33.4636 68.376C33.8016 68.376 34.079 68.2633 34.2956 68.038C34.5123 67.8127 34.6206 67.5353 34.6206 67.206C34.6206 66.8767 34.5123 66.5993 34.2956 66.374C34.079 66.1487 33.8016 66.036 33.4636 66.036C33.1256 66.036 32.8483 66.1487 32.6316 66.374C32.415 66.5993 32.3066 66.8767 32.3066 67.206Z" fill="white"/>
</svg>
