<svg width="260" height="131" viewBox="0 0 260 131" fill="none" xmlns="http://www.w3.org/2000/svg">
<g clip-path="url(#clip0_202_1444)">
<path d="M0 0.5H260" stroke="#CCCCCC" stroke-dasharray="4 2"/>
<path d="M0 43.8301H260" stroke="#CCCCCC" stroke-dasharray="4 2"/>
<path d="M0 87.1599H260" stroke="#CCCCCC" stroke-dasharray="4 2"/>
<path d="M0 130.49H260" stroke="#CCCCCC" stroke-dasharray="4 2"/>
<path d="M0 0V131" stroke="#CCCCCC" stroke-dasharray="4 2"/>
<path d="M43.167 0V131" stroke="#CCCCCC" stroke-dasharray="4 2"/>
<path d="M86.333 0V131" stroke="#CCCCCC" stroke-dasharray="4 2"/>
<path d="M129.5 0V131" stroke="#CCCCCC" stroke-dasharray="4 2"/>
<path d="M172.667 0V131" stroke="#CCCCCC" stroke-dasharray="4 2"/>
<path d="M215.833 0V131" stroke="#CCCCCC" stroke-dasharray="4 2"/>
<path d="M259 0V131" stroke="#CCCCCC" stroke-dasharray="4 2"/>
<path opacity="0.2" d="M0.5 124L-28.5 172L277 162L260.5 10L222.5 71L187.5 39.5L137.5 83L107.5 58L56.5 107.5L28.5 91.5L0.5 124Z" fill="#E62E2E"/>
<path d="M0.5 124L-28.5 172L277 162L260.5 10L222.5 71L187.5 39.5L137.5 83L107.5 58L56.5 107.5L28.5 91.5L0.5 124Z" stroke="#E62E2E" stroke-width="2" stroke-linejoin="round"/>
</g>
<defs>
<clipPath id="clip0_202_1444">
<rect width="260" height="131" fill="white"/>
</clipPath>
</defs>
</svg>
