<svg width="96" height="35" viewBox="0 0 96 35" fill="none" xmlns="http://www.w3.org/2000/svg">
<path d="M0.515467 5.49392L0.472511 4.9355C0.787519 3.44637 1.34594 2.55862 2.14778 2.27225C2.3196 2.27225 2.41983 2.25793 2.44847 2.22929L3.17871 2.01452L3.43645 1.97156L4.59625 1.84269C4.85398 1.81406 5.0258 1.79974 5.11171 1.79974L5.45536 1.84269C5.45536 1.84269 5.67014 1.78542 6.09969 1.67087C6.27151 1.6136 6.55788 1.57064 6.9588 1.54201L7.43131 1.58496L8.5052 1.45609C8.56248 1.45609 8.63407 1.47041 8.71998 1.49905C8.86317 1.41314 8.97772 1.37018 9.06363 1.37018L9.62205 1.45609L10.0086 1.37018C10.2091 1.39882 10.338 1.44178 10.3952 1.49905L10.4812 1.58496L10.7818 1.54201C10.8964 1.54201 10.968 1.52769 10.9966 1.49905C11.0253 1.49905 11.0682 1.52769 11.1255 1.58496C11.1828 1.64223 11.24 1.67087 11.2973 1.67087L11.8557 1.58496C11.8844 1.58496 11.9416 1.62792 12.0276 1.71383L12.1994 1.75678L12.3283 1.71383C12.4142 1.65655 12.586 1.6136 12.8437 1.58496C13.1014 1.58496 13.3449 1.69951 13.574 1.92861C13.6599 2.01452 13.7458 2.05747 13.8317 2.05747C13.9176 2.02883 14.0035 1.97156 14.0894 1.88565L14.2613 1.79974C14.4044 1.74247 14.5619 1.87133 14.7338 2.18634C14.9056 2.47271 14.9915 2.74476 14.9915 3.00249V3.30318C15.0201 3.36046 15.0345 3.41773 15.0345 3.475C15.0345 3.50364 15.0058 3.57524 14.9485 3.68979C14.9199 3.80433 14.8913 3.90456 14.8626 3.99047C15.0058 4.59185 15.0774 4.99277 15.0774 5.19323C15.0774 5.4796 14.9772 5.62278 14.7767 5.62278C14.7767 5.62278 14.7338 5.60847 14.6479 5.57983C14.5906 5.55119 14.476 5.53687 14.3042 5.53687H13.7887C13.6169 5.50824 13.3878 5.4796 13.1015 5.45096C12.6146 5.42232 12.0848 5.33641 11.5121 5.19323C11.4835 5.19323 11.3975 5.23618 11.2544 5.3221C11.1112 5.40801 11.0253 5.45096 10.9966 5.45096L10.0086 5.36505C9.86546 5.36505 9.70796 5.45096 9.53614 5.62278C9.53614 5.73733 9.83683 6.03802 10.4382 6.52485C10.4668 6.55349 10.5814 6.83986 10.7818 7.38396C10.9823 7.92807 11.0825 8.22876 11.0825 8.28603C11.0825 8.28603 11.0682 8.32899 11.0396 8.4149C11.0109 8.50081 10.9966 8.60104 10.9966 8.71559L11.0396 9.23105L10.8248 9.91834L10.8678 10.7345C10.6387 11.3932 10.4525 12.1807 10.3093 13.0971C10.3093 13.3834 10.295 13.5696 10.2664 13.6555L10.2234 13.9562C10.2234 14.0421 10.1805 14.1709 10.0946 14.3428L10.0516 14.7294C10.023 14.9298 9.95137 15.3021 9.83683 15.8462C9.80819 15.8748 9.79387 15.9894 9.79387 16.1899C9.76523 16.9344 9.53614 17.7792 9.10658 18.7242L9.14954 19.3686L9.10658 19.6693C8.99203 20.4711 8.93476 20.8577 8.93476 20.8291C8.90612 21.0009 8.87748 21.23 8.84885 21.5163C8.84885 21.4877 8.77726 21.9745 8.63407 22.9768C8.63407 23.1773 8.60543 23.4923 8.54816 23.9219C8.54816 24.0937 8.53384 24.1939 8.5052 24.2225L8.24747 24.6951C8.24747 24.7237 8.23315 24.738 8.20451 24.738C8.20451 24.738 8.21883 24.7667 8.24747 24.8239C8.30474 24.8526 8.33338 24.9242 8.33338 25.0387C8.30474 25.9837 8.24747 26.6853 8.16156 27.1435L8.20451 28.3463C8.20451 28.4322 8.17588 28.6613 8.1186 29.0336C8.08997 29.0908 8.07565 29.1481 8.07565 29.2054C8.13292 29.5204 8.20451 29.8784 8.29043 30.2793C8.29043 30.7375 8.00406 31.0668 7.43131 31.2673C7.31677 31.3245 7.1879 31.4248 7.04471 31.568C6.90153 31.7398 6.75834 31.8257 6.61516 31.8257C6.47197 31.8257 6.31447 31.6682 6.14265 31.3532C5.97082 31.0095 5.88491 30.7088 5.88491 30.4511C5.88491 30.3079 5.92787 30.1791 6.01378 30.0645C6.04242 30.0359 6.05674 30.0072 6.05674 29.9786C6.05674 29.95 6.0281 29.9356 5.97082 29.9356C5.88491 29.8211 5.81332 29.6206 5.75605 29.3343C5.72741 29.0193 5.69877 28.8188 5.67014 28.7329C5.61286 28.5324 5.58422 28.3463 5.58422 28.1745C5.58422 27.9167 5.59854 27.7306 5.62718 27.616C5.65582 27.5015 5.68445 27.3583 5.71309 27.1865C5.71309 27.1292 5.68445 26.986 5.62718 26.7569V26.5851C5.56991 26.356 5.52695 26.2128 5.49831 26.1555C5.46968 26.0983 5.45536 26.0553 5.45536 26.0267C5.45536 25.998 5.46968 25.9694 5.49831 25.9408C5.52695 25.8835 5.54127 25.8262 5.54127 25.7689L5.49831 24.8239C5.49831 24.738 5.52695 24.6235 5.58422 24.4803C5.6415 24.3371 5.67014 24.2369 5.67014 24.1796C5.67014 24.151 5.6415 24.0794 5.58422 23.9648C5.55559 23.8216 5.54127 23.7071 5.54127 23.6212C5.59854 22.8193 5.65582 21.9029 5.71309 20.872C5.74173 20.2993 5.78468 19.569 5.84196 18.6813C5.84196 18.5954 5.88491 18.2517 5.97082 17.6503C5.99946 17.4212 6.04242 16.8199 6.09969 15.8462C6.09969 15.7317 6.12833 15.5026 6.1856 15.1589C6.24288 14.9012 6.27151 14.4287 6.27151 13.7414C6.27151 13.455 6.30015 13.2546 6.35742 13.14C6.38606 13.1114 6.40038 13.0827 6.40038 13.0541C6.40038 13.0255 6.38606 12.9968 6.35742 12.9682C6.32879 12.9109 6.31447 12.8536 6.31447 12.7964C6.31447 12.7964 6.4147 12.4814 6.61516 11.8513C6.67243 11.6795 6.72971 11.5077 6.78698 11.3359C6.78698 11.2786 6.74403 11.1927 6.65811 11.0781L6.5722 10.8204C6.5722 10.7918 6.58652 10.7631 6.61516 10.7345C6.6438 10.7059 6.68675 10.4911 6.74403 10.0902V9.87539L6.82994 9.1881L6.87289 8.67263C6.87289 8.58672 6.93017 8.28603 7.04471 7.77056L7.00176 7.16919C7.00176 7.11191 7.0304 6.99736 7.08767 6.82554C7.17358 6.62508 7.21654 6.46758 7.21654 6.35303C7.21654 6.12393 7.14494 5.98075 7.00176 5.92347C6.5722 5.75165 6.32879 5.66574 6.27151 5.66574C6.24288 5.66574 6.14265 5.72301 5.97082 5.83756C5.82764 5.92347 5.74173 5.96643 5.71309 5.96643C5.45536 5.96643 5.28354 5.98075 5.19762 6.00938L5.0258 6.0953H4.76807C4.73943 6.0953 4.58193 6.12393 4.29556 6.18121C3.866 6.35303 3.59395 6.43894 3.4794 6.43894L3.00689 6.4819C2.97825 6.4819 2.92098 6.49622 2.83507 6.52485L2.36256 6.78258C2.33392 6.78258 2.26233 6.7969 2.14778 6.82554C2.06187 6.85418 1.933 6.89713 1.76118 6.95441L1.58936 7.04032L1.24571 7.08328C1.13116 7.08328 0.987978 7.12623 0.816156 7.21214C0.644334 7.26942 0.529786 7.29805 0.472511 7.29805C0.157504 7.29805 0 7.11191 0 6.73963C0 6.71099 0.0286371 6.58213 0.0859112 6.35303C0.372282 5.83756 0.515467 5.55119 0.515467 5.49392Z" fill="#E62E2E"/>
<path d="M13.3461 28.0026L13.6897 27.659C13.747 27.6017 13.7757 27.5158 13.7757 27.4013C13.7757 27.344 13.7613 27.2724 13.7327 27.1865C13.3604 27.4442 13.117 27.6447 13.0025 27.7879C12.8879 27.931 12.6015 28.0313 12.1433 28.0885C11.7138 28.0313 11.4704 27.7735 11.4131 27.3153C11.3845 27.2008 11.2985 27.1006 11.1554 27.0147C11.1554 26.986 11.1983 26.9287 11.2842 26.8428C11.2842 26.8428 11.3129 26.7426 11.3701 26.5421C11.3988 26.4562 11.5706 26.2987 11.8856 26.0696C11.9429 26.0124 12.0717 25.8978 12.2722 25.726C12.4154 25.6401 12.6159 25.4969 12.8736 25.2964L13.0025 25.1246V25.0387C13.0025 24.9814 13.0884 24.8955 13.2602 24.781L13.3891 24.5232C13.4177 24.466 13.5036 24.3657 13.6468 24.2225C13.7041 24.1653 13.9618 23.9935 14.42 23.7071L15.4509 23.0627C15.68 22.7764 16.038 22.3468 16.5248 21.7741C16.5821 21.6882 16.625 21.6452 16.6537 21.6452L16.9114 21.5163C16.9687 21.4877 17.0832 21.3588 17.2551 21.1297C17.341 21.0438 17.5128 20.9007 17.7705 20.7002C18.0283 20.4997 18.4578 20.1561 19.0592 19.6693C19.231 19.5547 19.546 19.297 20.0042 18.8961C20.176 18.7242 20.4194 18.5238 20.7345 18.2947L21.4217 17.6503C21.4217 17.6503 21.6795 17.4499 22.1949 17.049C22.1949 17.049 22.2809 16.9917 22.4527 16.8771C22.5672 16.8485 22.7534 16.734 23.0111 16.5335L23.6984 16.1039C23.727 16.1039 23.77 16.0753 23.8273 16.018C23.9132 15.9608 24.0277 15.9178 24.1709 15.8892C24.3141 15.8605 24.4716 15.8319 24.6434 15.8033C24.7293 15.8033 24.8582 15.7746 25.03 15.7173C25.2305 15.6601 25.3593 15.6314 25.4166 15.6314C25.6171 15.6314 25.8462 15.7603 26.1039 16.018C26.3616 16.2758 26.4905 16.5049 26.4905 16.7053C26.4905 16.9344 26.3044 17.2637 25.9321 17.6933C25.5884 18.0942 25.2305 18.3663 24.8582 18.5095C24.8296 18.5381 24.7866 18.5954 24.7293 18.6813C24.672 18.7386 24.6005 18.8531 24.5145 19.0249C24.4286 19.1967 24.3141 19.3113 24.1709 19.3686C23.9418 19.569 23.6841 19.7981 23.3977 20.0559L23.2259 20.2277C23.1972 20.3136 23.1256 20.3709 23.0111 20.3995L22.7534 20.6143L22.6245 20.7431C22.4813 21.0009 22.3524 21.1584 22.2379 21.2157C22.152 21.2729 22.0518 21.3732 21.9372 21.5163L21.7654 21.7311L21.6795 21.817L21.2499 22.0748C21.2213 22.0748 21.1926 22.1177 21.164 22.2036L21.0351 22.5043C21.0065 22.533 20.9206 22.6046 20.7774 22.7191L20.5626 22.8909L20.3479 23.1487C20.3479 23.1487 20.2333 23.2203 20.0042 23.3634C19.8037 23.5066 19.7035 23.6069 19.7035 23.6641L19.5317 24.0078C19.5317 24.0078 19.4458 24.0937 19.274 24.2655C19.2167 24.2941 19.1308 24.3944 19.0162 24.5662C18.9876 24.5948 18.959 24.6235 18.9303 24.6521C18.9303 24.6807 18.6296 24.9957 18.0283 25.5971L17.8564 25.7689C17.7419 25.8835 17.6846 25.9551 17.6846 25.9837C17.5701 26.2128 17.4269 26.4562 17.2551 26.714L17.1262 26.8428C17.0975 26.8715 17.0689 26.9144 17.0403 26.9717C17.0403 27.029 17.0403 27.0719 17.0403 27.1006C17.0403 27.1292 17.026 27.1578 16.9973 27.1865L17.1262 27.2724C17.2121 27.2438 17.3266 27.2151 17.4698 27.1865C17.613 27.1292 17.8278 26.9717 18.1142 26.714C18.2573 26.6281 18.4721 26.4706 18.7585 26.2415C18.873 26.1269 19.0305 25.998 19.231 25.8549C19.231 25.8549 19.3456 25.7403 19.5747 25.5112C19.7465 25.368 20.1331 25.0244 20.7345 24.4803C20.9349 24.3371 21.1926 24.151 21.5077 23.9219C21.5363 23.8932 21.7081 23.6928 22.0231 23.3205C22.109 23.2059 22.4813 22.8623 23.14 22.2895C23.6268 21.86 23.9991 21.6452 24.2568 21.6452C24.5432 21.6452 24.715 21.6309 24.7723 21.6023C24.8582 21.5736 24.9298 21.5593 24.9871 21.5593C25.2734 21.5593 25.4882 21.7168 25.6314 22.0318C25.6314 22.0318 25.66 22.3182 25.7173 22.8909C25.7459 23.0055 25.7889 23.2632 25.8462 23.6641L25.7603 24.6091C25.7889 24.9814 25.8891 25.4253 26.0609 25.9408C26.4332 26.4562 26.8198 26.714 27.2207 26.714C27.4498 26.714 27.7362 26.4849 28.0799 26.0267C28.2517 25.7976 28.3805 25.6687 28.4665 25.6401L28.8531 25.4253C28.8531 25.4253 28.896 25.3823 28.9819 25.2964L29.1537 25.1246C29.1537 24.7237 29.526 24.5232 30.2706 24.5232C30.4424 24.5232 30.6142 24.6378 30.7861 24.8669C30.9865 25.0673 31.0867 25.2678 31.0867 25.4683C31.0867 25.8978 30.9865 26.1412 30.7861 26.1985C30.5856 26.399 30.4281 26.5708 30.3135 26.714V26.671C30.3135 26.6424 30.2992 26.6281 30.2706 26.6281V26.671C30.242 26.7283 30.1704 26.8285 30.0558 26.9717L29.841 27.1865C29.4401 27.5015 29.1394 27.7879 28.939 28.0456L28.7671 28.1745L28.3376 28.5611C27.278 29.5061 26.4189 29.9786 25.7603 29.9786C24.672 29.9786 23.8988 29.7065 23.4407 29.1624C23.0111 28.5897 22.7677 28.1745 22.7104 27.9167C22.6245 27.4872 22.5815 27.2581 22.5815 27.2294C22.5815 27.0863 22.5529 26.8428 22.4956 26.4992C22.467 26.1555 22.3954 25.9837 22.2809 25.9837C22.2236 25.9837 22.0804 26.1126 21.8513 26.3703C21.794 26.4276 21.5649 26.5994 21.164 26.8858C21.0495 26.9717 20.9492 27.0719 20.8633 27.1865C20.806 27.301 20.7345 27.4013 20.6485 27.4872C20.3049 27.6876 20.0472 27.8881 19.8753 28.0885L19.7035 28.3033C19.7035 28.3033 19.6319 28.3606 19.4887 28.4751C19.3742 28.5611 19.1737 28.7329 18.8874 28.9906C17.8851 29.9356 17.0975 30.5657 16.5248 30.8807C16.3243 30.9952 16.1239 31.1098 15.9234 31.2243C15.8948 31.2243 15.8232 31.2673 15.7087 31.3532L15.1932 31.6109L14.7636 31.6539C14.6491 31.6539 14.5632 31.6682 14.5059 31.6968C14.4773 31.7255 14.4486 31.7398 14.42 31.7398C14.3054 31.7398 14.1909 31.6968 14.0763 31.6109C13.9904 31.525 13.9188 31.482 13.8616 31.482L13.3461 31.2673C13.117 31.1241 12.9738 30.895 12.9165 30.58C12.9165 30.5513 12.8879 30.4654 12.8306 30.3222C12.7447 30.1791 12.7018 30.0502 12.7018 29.9356C12.7304 29.5061 12.8163 29.1624 12.9595 28.9047C13.1313 28.3892 13.2315 28.1315 13.2602 28.1315C13.2602 28.1029 13.2888 28.0599 13.3461 28.0026Z" fill="#E62E2E"/>
<path d="M31.0438 26.4133L30.6572 26.7569C30.5999 26.8142 30.471 26.9574 30.2706 27.1865C29.8983 27.4442 29.6549 27.6447 29.5403 27.7879C29.4258 27.931 29.1394 28.0313 28.6812 28.0885C28.2517 28.0313 28.0083 27.7735 27.951 27.3153C27.9224 27.2008 27.8364 27.1006 27.6933 27.0147C27.6933 26.986 27.7362 26.9287 27.8221 26.8428C27.8221 26.8428 27.8508 26.7426 27.908 26.5421C27.9367 26.4562 28.1085 26.2987 28.4235 26.0696C28.4808 26.0124 28.6096 25.8978 28.8101 25.726C28.9533 25.6401 29.1537 25.4969 29.4115 25.2964L29.4974 25.1676C29.5833 25.053 29.6835 24.9242 29.7981 24.781L29.9269 24.5232C30.156 24.1796 30.4997 23.8359 30.9579 23.4923C31.5306 23.0627 31.817 22.7477 31.817 22.5473C31.817 22.5186 31.8027 22.4614 31.774 22.3755C31.7454 22.2895 31.7168 22.1893 31.6881 22.0748L31.9029 21.3445C31.9029 21.2873 31.8743 21.1727 31.817 21.0009C31.7884 20.9436 31.774 20.8863 31.774 20.8291C31.774 20.6859 31.8456 20.2563 31.9888 19.5404L32.0318 19.1108C32.1177 19.0249 32.1606 18.9676 32.1606 18.939L32.1177 18.8101V18.6813C32.2322 18.2231 32.2895 17.951 32.2895 17.8651C32.3754 17.2924 32.762 15.8176 33.4493 13.4407C33.5638 13.2116 33.6927 12.8823 33.8359 12.4527L34.0507 11.8084C34.1652 11.4361 34.4086 10.9063 34.7809 10.219C34.8955 10.1045 35.01 9.81811 35.1246 9.35992C35.1818 9.1881 35.2678 8.97332 35.3823 8.71559C35.4396 8.5724 35.4969 8.44353 35.5541 8.32899C35.6114 8.1858 35.7116 7.97102 35.8548 7.68465L36.5851 6.39598C36.8142 5.79461 37.1292 5.2505 37.5301 4.76367C37.7592 4.36275 37.888 4.14798 37.9167 4.11934L38.0455 3.94752L38.3462 3.60387C38.4035 3.48932 38.4608 3.40341 38.5181 3.34614L38.6899 3.0884C38.8903 2.88795 39.1767 2.58726 39.549 2.18634C39.6063 2.1577 39.7208 2.11475 39.8926 2.05747C39.9499 2.02883 40.0645 1.98588 40.2363 1.92861C40.4367 1.84269 40.5513 1.79974 40.5799 1.79974L40.6229 1.84269L40.6658 1.79974C41.4104 1.97156 41.8113 2.11475 41.8686 2.22929C42.2409 2.65885 42.4127 3.04545 42.3841 3.38909L42.3411 4.03343L42.427 4.63481C42.427 4.69208 42.3697 4.84959 42.2552 5.10732L42.2982 5.75165C42.2982 5.89484 42.2695 6.13825 42.2122 6.4819C42.2122 6.4819 42.1836 6.56781 42.1263 6.73963C42.0691 6.88281 41.9402 7.34101 41.7397 8.11421C41.7684 8.25739 41.7827 8.37194 41.7827 8.45785C41.7827 8.45785 41.7684 8.48649 41.7397 8.54376L41.6538 8.71559L41.6968 9.01627C41.525 9.30265 41.4104 9.56038 41.3531 9.78947C41.3245 9.98993 41.2099 10.3049 41.0095 10.7345C40.9522 10.9063 40.9236 11.0209 40.9236 11.0781C40.8663 11.3645 40.7661 11.6795 40.6229 12.0232C40.5656 12.2236 40.4081 12.7105 40.1504 13.4837C40.0931 13.5982 39.9499 13.8273 39.7208 14.1709C39.6349 14.3428 39.506 14.5575 39.3342 14.8153C39.2483 15.2162 39.0622 15.6887 38.7758 16.2328L38.561 16.5765C38.4751 16.7769 38.289 17.049 38.0026 17.3926C37.9453 17.4785 37.9024 17.5644 37.8737 17.6503C37.7019 18.0799 37.4871 18.5095 37.2294 18.939C37.1435 19.0822 36.9144 19.4115 36.5421 19.927L36.1985 20.5284C36.0839 20.6716 35.8691 21.0438 35.5541 21.6452C35.5541 21.6739 35.368 21.8743 34.9957 22.2466C34.7666 22.5043 34.6521 22.7334 34.6521 22.9339C34.6521 22.9339 34.6664 22.9768 34.695 23.0627L34.738 23.5353C34.7666 23.8216 34.8239 24.0794 34.9098 24.3085L34.9957 24.6091C34.9957 24.6378 35.0243 24.7667 35.0816 24.9957L35.2105 25.1676C35.2391 25.1962 35.2821 25.2964 35.3393 25.4683C35.5398 26.041 35.998 26.4992 36.7139 26.8428C37.258 27.0433 37.5874 27.1435 37.7019 27.1435C38.0169 27.1435 38.4608 27.0433 39.0335 26.8428C39.6063 26.6424 39.9786 26.4419 40.1504 26.2415C40.3222 26.041 40.5083 25.8405 40.7088 25.6401L41.1383 25.4253C41.167 25.3967 41.1956 25.3537 41.2243 25.2964C41.2815 25.2392 41.3388 25.1819 41.3961 25.1246C41.3961 24.7237 41.7684 24.5232 42.5129 24.5232C42.6848 24.5232 42.8566 24.6378 43.0284 24.8669C43.2289 25.0673 43.3291 25.2678 43.3291 25.4683C43.3291 25.8978 43.2289 26.1412 43.0284 26.1985C42.8279 26.399 42.6704 26.5708 42.5559 26.714V26.671C42.5559 26.6424 42.5416 26.6281 42.5129 26.6281V26.671C42.4843 26.7283 42.4127 26.8285 42.2982 26.9717C42.2982 26.9717 42.2266 27.0433 42.0834 27.1865C41.7397 27.4442 41.4247 27.7163 41.1383 28.0026L40.4081 28.7329C40.3222 28.7902 40.179 28.8761 39.9786 28.9906L39.549 29.3343C38.8331 29.907 37.8451 30.222 36.5851 30.2793L35.9837 30.1075L35.3393 30.1504C34.9098 30.1791 34.3371 29.8354 33.6211 29.1195L33.4923 28.9906C33.3491 28.8474 33.1343 28.5754 32.8479 28.1745C32.6761 27.9454 32.5902 27.8022 32.5902 27.7449C32.4756 27.4299 32.3611 27.1006 32.2465 26.7569C32.1893 26.5851 32.1034 26.2987 31.9888 25.8978C31.9602 25.8405 31.9172 25.7689 31.8599 25.683H31.817C31.817 25.7117 31.8027 25.726 31.774 25.726C31.7454 25.6974 31.6309 25.7976 31.4304 26.0267C31.2586 26.2271 31.1297 26.356 31.0438 26.4133ZM37.9167 13.7414L38.1315 13.3548C38.2174 13.2116 38.3176 12.9539 38.4321 12.5816C38.5753 11.9229 38.7328 11.4075 38.9047 11.0352L39.0335 10.7345C39.0622 10.6772 39.0908 10.5627 39.1194 10.3909C39.1194 10.3049 39.1481 10.2047 39.2053 10.0902L39.1624 9.44583C39.1624 9.41719 39.2054 9.33128 39.2913 9.1881C39.3772 9.01627 39.4201 8.87309 39.4201 8.75854C39.3915 8.67263 39.3485 8.62967 39.2913 8.62967C39.234 8.65831 39.1624 8.71559 39.0765 8.8015C38.9333 9.03059 38.8474 9.14514 38.8187 9.14514C38.6183 9.3456 38.5037 9.48879 38.4751 9.5747L38.3892 9.66061L38.0885 10.0043C38.0599 10.0329 38.0312 10.0758 38.0026 10.1331L37.7878 10.5627L37.5301 10.9493C37.0719 11.6366 36.8428 12.152 36.8428 12.4957C36.8428 12.5816 36.8571 12.6532 36.8857 12.7105C36.9144 12.7391 36.9287 12.7677 36.9287 12.7964L36.8857 12.9682C36.6853 13.1686 36.5851 13.3977 36.5851 13.6555C36.4991 13.7987 36.3846 14.0564 36.2414 14.4287C36.1555 14.6005 35.998 14.9298 35.7689 15.4167C35.7689 15.4739 35.7403 15.5455 35.683 15.6314V16.018C35.6544 16.0753 35.5971 16.2042 35.5112 16.4046C35.4253 16.6051 35.3537 16.7769 35.2964 16.9201L35.2105 17.3926C35.2105 17.4499 35.1532 17.6074 35.0387 17.8651C34.9241 18.1229 34.8668 18.3233 34.8668 18.4665C34.8668 18.6097 34.9241 18.7099 35.0387 18.7672C35.0673 18.7672 35.0816 18.7529 35.0816 18.7242C35.1103 18.6956 35.1962 18.624 35.3393 18.5095C35.4825 18.3949 35.683 18.0942 35.9407 17.6074C36.0266 17.4642 36.1841 17.1922 36.4132 16.7912C36.5564 16.5049 36.7712 16.1469 37.0576 15.7173C37.2008 15.4023 37.3583 15.1303 37.5301 14.9012C37.5874 14.8153 37.6733 14.5719 37.7878 14.1709C37.8451 14.085 37.888 13.9418 37.9167 13.7414Z" fill="#E62E2E"/>
<path d="M41.5847 24.0507L41.7565 23.3634C41.7851 23.3062 41.7995 23.2346 41.7995 23.1487C41.7995 23.0914 41.7708 22.9625 41.7136 22.7621C41.6849 22.7048 41.6706 22.6618 41.6706 22.6332C41.6706 22.175 41.9713 21.4877 42.5727 20.5713C42.6872 20.3995 43.1454 20.2277 43.9472 20.0559C44.3195 19.884 44.5057 19.612 44.5057 19.2397C44.5916 19.0679 44.6488 18.939 44.6775 18.8531C44.7061 18.7672 44.7634 18.5524 44.8493 18.2088C44.8779 18.1515 44.9066 18.0942 44.9352 18.0369L45.107 17.8222C45.107 17.8222 45.1643 17.7076 45.2789 17.4785C45.3075 17.4499 45.4077 17.2924 45.5796 17.006V16.3187C45.6655 16.1469 45.78 15.8176 45.9232 15.3307L46.2668 14.1709C46.2955 14.0278 46.3671 13.8703 46.4816 13.6984C46.5962 13.498 46.6678 13.3548 46.6964 13.2689C46.725 13.1543 46.7823 12.9682 46.8682 12.7105C46.8969 12.5959 46.9255 12.4384 46.9541 12.2379C46.9828 12.1234 47.0257 11.9659 47.083 11.7654L47.1689 11.5077L47.2978 11.0352L47.4696 10.6486L47.5985 10.219C47.713 9.93266 47.9135 9.44583 48.1998 8.75854C48.2571 8.64399 48.343 8.4149 48.4576 8.07125C48.5435 7.87079 48.658 7.69897 48.8012 7.55579C48.8585 7.44124 48.9444 7.32669 49.059 7.21214C49.2594 6.89713 49.4026 6.72531 49.4885 6.69667L49.5315 6.56781C49.5315 6.51053 49.3883 6.35303 49.1019 6.0953C49.016 6.00938 48.973 5.8662 48.973 5.66574C48.973 5.35073 49.1592 5.00709 49.5315 4.63481C49.7033 4.49162 50.1042 4.37707 50.7342 4.29116C51.0492 4.17661 51.3786 3.7041 51.7222 2.87363C51.7795 2.70181 51.937 2.58726 52.1947 2.52998C52.252 2.52998 52.3093 2.50135 52.3665 2.44407L52.6243 2.22929C52.6815 2.17202 52.7388 2.12906 52.7961 2.10043L53.0968 1.97156C53.2972 1.82838 53.6122 1.59928 54.0418 1.28427C54.1563 1.19836 54.3998 1.08381 54.772 0.940628L54.815 0.983583C54.8436 0.983583 54.9439 1.01222 55.1157 1.06949C55.6312 1.1554 55.8889 1.41314 55.8889 1.84269C55.8889 1.95724 55.8173 2.1577 55.6741 2.44407C55.6455 2.50135 55.5882 2.63021 55.5023 2.83067L55.3734 3.13136C55.3448 3.18864 55.3162 3.23159 55.2875 3.26023L55.2446 3.7757C55.2446 3.80433 55.1873 3.91888 55.0727 4.11934C54.9582 4.29116 54.9009 4.43435 54.9009 4.5489C54.9009 4.66344 55.0155 4.84959 55.2446 5.10732C55.4737 5.33641 55.7028 5.4796 55.9318 5.53687C56.1609 5.59415 56.4044 5.69438 56.6621 5.83756C56.8053 5.89484 56.9628 5.95211 57.1346 6.00938C57.5642 6.12393 57.8362 6.46758 57.9508 7.04032C57.9508 7.12623 58.0224 7.38396 58.1655 7.81352C58.2514 8.04261 58.3946 9.17378 58.5951 11.207C58.5951 11.3502 58.5521 11.522 58.4662 11.7225C58.409 11.8943 58.3803 12.0232 58.3803 12.1091C58.3803 12.2523 58.4233 12.4241 58.5092 12.6245C58.6524 12.9682 58.724 13.2259 58.724 13.3977L58.681 13.8703L58.724 14.3428C58.724 14.4287 58.7096 14.5289 58.681 14.6435C58.6524 14.758 58.638 14.8582 58.638 14.9441C58.638 15.0014 58.6524 15.0873 58.681 15.2019C58.7383 15.431 58.7669 15.5742 58.7669 15.6314C58.7669 15.6601 58.7526 15.7173 58.724 15.8033C58.724 15.746 58.6953 16.0324 58.638 16.6624C58.638 17.4642 58.6524 17.8938 58.681 17.951C58.7383 18.0083 58.8815 18.0513 59.1106 18.0799C59.3397 18.0799 59.4542 18.2374 59.4542 18.5524C59.4542 18.5524 59.4112 18.6097 59.3253 18.7242C59.2681 18.8101 59.2394 18.9247 59.2394 19.0679L59.1965 19.3686C59.1678 19.4831 59.0103 19.6406 58.724 19.8411C58.5808 19.927 58.5092 20.0415 58.5092 20.1847L58.5521 20.7861C58.4949 21.4448 58.4089 22.1177 58.2944 22.805C58.2944 22.8623 58.3087 22.9339 58.3374 23.0198C58.366 23.0771 58.3803 23.12 58.3803 23.1487C58.3803 23.1773 58.3517 23.2489 58.2944 23.3634C58.2658 23.4493 58.2371 23.5925 58.2085 23.793C58.2085 23.9648 58.1942 24.1366 58.1655 24.3085C58.1655 24.4803 58.1512 24.6521 58.1226 24.8239L58.1655 25.5542C58.051 25.9837 57.9937 26.2987 57.9937 26.4992C57.9937 26.6997 57.9651 26.8858 57.9078 27.0576C57.8792 27.2294 57.8505 27.4299 57.8219 27.659C57.7646 28.0026 57.7073 28.2031 57.6501 28.2604C57.6214 28.3176 57.6071 28.3749 57.6071 28.4322C57.6071 28.4322 57.6214 28.4608 57.6501 28.5181C57.6787 28.5754 57.7073 28.7186 57.736 28.9477C57.6787 29.1481 57.6358 29.3056 57.6071 29.4202C57.6071 29.5347 57.5642 29.7352 57.4782 30.0216L57.2635 30.6659C57.2635 31.2386 57.0057 31.6968 56.4903 32.0405C56.4044 32.0977 56.3471 32.1407 56.3184 32.1693L56.0607 32.3841C55.8889 32.5559 55.7314 32.6418 55.5882 32.6418C55.445 32.6418 55.3018 32.2409 55.1586 31.4391C55.1586 31.3818 55.173 31.3102 55.2016 31.2243C55.2302 31.1098 55.2732 30.7804 55.3305 30.2363L55.2446 29.592C55.2159 29.5347 55.2016 29.4774 55.2016 29.4202C55.2016 29.3915 55.2159 29.3343 55.2446 29.2484C55.2732 29.1338 55.2875 29.0336 55.2875 28.9477L55.2446 28.3033C55.3018 27.7306 55.3305 27.4013 55.3305 27.3153C55.3305 27.2008 55.3591 26.9431 55.4164 26.5421L55.3305 26.0267C55.3305 25.9694 55.3591 25.9121 55.4164 25.8549C55.4737 25.7689 55.5023 25.7117 55.5023 25.683C55.3305 25.4539 55.2446 25.2964 55.2446 25.2105C55.2446 25.1819 55.2589 25.1246 55.2875 25.0387L55.3305 24.5662V24.2225C55.3591 24.108 55.3734 24.0078 55.3734 23.9219L55.3305 23.4493C55.445 23.163 55.5023 22.9625 55.5023 22.848C55.4737 22.5616 55.4307 22.0748 55.3734 21.3875C55.3448 20.9579 55.2446 20.7718 55.0727 20.8291C54.7005 20.9436 54.4141 21.0582 54.2136 21.1727C53.87 21.3732 53.4118 21.4734 52.839 21.4734L52.1088 21.5593C52.0229 21.5593 51.6506 21.7025 50.992 21.9889C50.8774 22.0175 50.7199 22.0605 50.5194 22.1177C49.8894 22.2323 49.4456 22.3468 49.1878 22.4614C49.0446 22.5759 48.8585 22.6761 48.6294 22.7621C48.4289 22.848 48.1998 22.9625 47.9421 23.1057C47.6844 23.2489 47.4553 23.3491 47.2548 23.4064C47.1689 23.4064 47.0544 23.435 46.9112 23.4923L46.7394 23.5782L46.2239 23.4923C46.0521 23.6928 45.78 24.3801 45.4077 25.5542C45.3505 25.726 45.2932 25.8692 45.2359 25.9837C45.0641 26.2415 44.835 26.714 44.5486 27.4013C44.52 27.8022 44.4484 28.2174 44.3338 28.647C44.3338 28.7329 44.2479 29.0336 44.0761 29.549C44.0188 29.6636 43.9043 29.907 43.7325 30.2793L43.6895 30.7088L43.5606 31.1384C43.5606 30.9952 43.5177 31.2243 43.4318 31.8257L43.0881 32.5989C43.0595 32.6275 43.0452 32.6705 43.0452 32.7278C43.0452 32.785 42.9879 32.9712 42.8734 33.2862L42.6586 33.5439L42.5297 33.7587C42.4724 33.816 42.3579 33.8589 42.1861 33.8876C42.0142 33.9162 41.8711 33.9448 41.7565 33.9735C41.6133 34.0021 41.4701 34.0307 41.327 34.0594C41.1838 34.0594 41.0406 33.9448 40.8974 33.7157C40.7542 33.5153 40.6969 33.3005 40.7256 33.0714C40.7542 32.6705 40.7828 32.3841 40.8115 32.2123C40.8115 32.0691 40.926 31.6395 41.1551 30.9236C41.2124 30.7518 41.2983 30.3938 41.4129 29.8497C41.4988 29.592 41.5847 29.3629 41.6706 29.1624L41.7565 28.8188C41.8711 28.5611 41.9426 28.2031 41.9713 27.7449C42.1717 26.8858 42.4581 25.9121 42.8304 24.8239C42.8304 24.7667 42.7874 24.7237 42.7015 24.6951L42.0142 24.738C41.7279 24.7667 41.5847 24.5519 41.5847 24.0937V24.0507ZM49.7462 19.3256L50.1328 19.2397C50.3906 19.1824 50.5624 19.1538 50.6483 19.1538C50.7056 19.1824 50.7629 19.2111 50.8201 19.2397C50.8774 19.2397 50.949 19.254 51.0349 19.2827C51.2067 19.2827 51.4215 19.2397 51.6792 19.1538C51.937 19.0679 52.0945 19.0249 52.1518 19.0249L52.7961 19.0679C52.8247 19.0965 52.8534 19.1108 52.882 19.1108C52.9106 19.1108 52.9536 19.0965 53.0109 19.0679C53.24 18.8961 53.5263 18.8101 53.87 18.8101C54.0418 18.7815 54.185 18.7672 54.2995 18.7672C54.3282 18.7386 54.5573 18.7099 54.9868 18.6813C55.2446 18.624 55.3734 18.4951 55.3734 18.2947L55.3305 17.8222L55.3734 17.3067L55.3305 16.9631C55.3305 16.6767 55.3448 16.419 55.3734 16.1899C55.3734 15.8176 55.3877 15.388 55.4164 14.9012C55.4164 14.8726 55.3448 14.7723 55.2016 14.6005C55.2016 14.5719 55.1873 14.5432 55.1586 14.5146L55.2446 13.3548C55.2446 13.2689 55.2016 13.1543 55.1157 13.0111C55.0584 12.8393 55.0298 12.7248 55.0298 12.6675C55.0584 12.5816 55.0727 12.4814 55.0727 12.3668C55.1014 12.2236 55.13 12.1234 55.1586 12.0661C55.1586 11.9802 55.0727 11.8227 54.9009 11.5936C54.8723 11.5363 54.7577 11.3216 54.5573 10.9493C54.3854 10.577 54.0704 10.2047 53.6122 9.83243C53.1541 9.43151 52.8104 9.23105 52.5813 9.23105C52.3522 9.23105 52.1947 9.31696 52.1088 9.48879C51.937 9.74652 51.8081 9.91834 51.7222 10.0043C51.5217 10.2047 51.3929 10.4624 51.3356 10.7775C51.1638 11.1211 50.9204 11.6652 50.6054 12.4098C50.3476 13.0111 50.0899 13.4407 49.8322 13.6984C49.7462 13.813 49.7033 14.0278 49.7033 14.3428C49.646 14.486 49.4885 14.8582 49.2308 15.4596C49.1735 15.6887 49.0733 15.9464 48.9301 16.2328C48.8728 16.4046 48.7726 16.7053 48.6294 17.1349C48.5721 17.3353 48.4289 17.6074 48.1998 17.951L47.7703 18.8101L47.6844 19.0679L47.6414 19.2827C47.6414 19.4831 47.7417 19.5833 47.9421 19.5833C47.9994 19.5833 48.0853 19.5547 48.1998 19.4974C48.4289 19.4402 48.5578 19.4115 48.5864 19.4115C48.6724 19.4402 48.8585 19.4831 49.1449 19.5404C49.1735 19.5118 49.2308 19.4831 49.3167 19.4545C49.4026 19.4258 49.5458 19.3829 49.7462 19.3256Z" fill="#E62E2E"/>
<path d="M63.4236 25.5542H63.4665C62.8938 25.9837 62.5215 26.2844 62.3497 26.4562C62.321 26.5135 62.2494 26.6567 62.1349 26.8858C62.1063 26.9717 62.0347 27.0719 61.9201 27.1865C61.5478 27.4442 61.3044 27.6447 61.1899 27.7879C61.0753 27.931 60.789 28.0313 60.3308 28.0885C59.9012 28.0313 59.6578 27.7735 59.6005 27.3153C59.5719 27.2008 59.486 27.1006 59.3428 27.0147C59.3428 26.986 59.3857 26.9287 59.4717 26.8428C59.4717 26.8428 59.5003 26.7426 59.5576 26.5421C59.5862 26.4562 59.758 26.2987 60.073 26.0696C60.1303 26.0124 60.2592 25.8978 60.4596 25.726C60.6028 25.6401 60.8033 25.4969 61.061 25.2964L61.1899 25.1246V25.0387C61.1899 24.9814 61.2758 24.8955 61.4476 24.781L61.5765 24.5232C61.7483 24.2369 62.1779 23.8359 62.8651 23.3205C62.8651 23.3205 63.2661 22.8623 64.0679 21.9459C64.1824 21.8314 64.3972 21.5879 64.7122 21.2157C65.0272 20.8434 65.4854 20.3279 66.0868 19.6693C66.0868 19.6406 66.2014 19.5404 66.4305 19.3686C66.6596 19.1681 66.8886 18.9104 67.1177 18.5954C67.3468 18.2804 67.7478 17.9654 68.3205 17.6503C68.9219 17.3067 69.4087 17.1349 69.781 17.1349C70.1819 17.1349 70.5399 17.3353 70.8549 17.7363C71.1699 18.1372 71.3274 18.5811 71.3274 19.0679C71.3274 19.3256 71.2415 19.7695 71.0697 20.3995C71.041 20.5713 70.9551 20.8434 70.8119 21.2157C70.6974 21.5879 70.5971 21.9029 70.5112 22.1607C70.454 22.218 70.411 22.3755 70.3824 22.6332C70.2678 23.3491 69.9814 24.0937 69.5233 24.8669C69.5233 24.9242 69.4946 25.0387 69.4373 25.2105L69.2226 25.9408C69.1939 25.998 69.1796 26.0696 69.1796 26.1555C69.2083 26.2415 69.2512 26.2844 69.3085 26.2844C69.423 26.2844 69.5662 26.1555 69.738 25.8978C70.139 25.2964 70.5399 24.8955 70.9408 24.6951C71.1126 24.5805 71.2558 24.4087 71.3703 24.1796C71.4563 24.0364 71.5851 23.8503 71.7569 23.6212C71.8142 23.5925 71.8858 23.5353 71.9717 23.4493C72.1722 23.3062 72.4872 22.9912 72.9167 22.5043C74.2627 21.3016 75.3079 20.7002 76.0525 20.7002C76.9403 20.7002 77.4987 20.9007 77.7278 21.3016C77.8137 21.5307 77.9426 21.7598 78.1144 21.9889C78.5439 22.5902 78.8446 23.3778 79.0164 24.3514C79.0737 24.466 79.2599 24.7953 79.5749 25.3394C79.718 25.5971 79.9185 25.726 80.1762 25.726C80.5199 25.726 80.8349 25.5828 81.1213 25.2964C81.1499 25.2392 81.1929 25.1819 81.2501 25.1246C81.2501 24.7237 81.6224 24.5232 82.367 24.5232C82.5388 24.5232 82.7106 24.6378 82.8824 24.8669C83.0829 25.0673 83.1831 25.2678 83.1831 25.4683C83.1831 25.8692 83.0972 26.1269 82.9254 26.2415C82.7536 26.3274 82.5818 26.4849 82.4099 26.714V26.671C82.4099 26.6424 82.3956 26.6281 82.367 26.6281V26.671C82.3097 26.7856 82.2524 26.8715 82.1952 26.9287C82.1665 26.9574 82.0806 27.0433 81.9374 27.1865C81.6224 27.4156 81.422 27.5874 81.336 27.7019C81.336 27.7019 81.2788 27.7592 81.1642 27.8738L81.0353 28.0456L80.9494 28.1315L80.6058 28.3463C80.5772 28.3749 80.4769 28.4465 80.3051 28.5611C79.6465 29.0193 78.9735 29.234 78.2862 29.2054C77.7421 29.0336 77.3984 28.8331 77.2553 28.604C77.1121 28.3749 76.8973 28.0885 76.6109 27.7449L76.3961 27.4872C76.3389 27.3726 76.2243 27.1006 76.0525 26.671C75.9666 26.4419 75.7375 26.1412 75.3652 25.7689C75.2507 25.7117 75.1504 25.5685 75.0645 25.3394C74.8641 25.0244 74.6493 24.8669 74.4202 24.8669C74.277 24.8669 73.9047 25.0673 73.3033 25.4683C72.7306 25.8692 72.3726 26.1555 72.2295 26.3274C72.1149 26.4992 72.0147 26.6137 71.9288 26.671L71.8858 26.7569L71.4563 26.9287C71.1126 27.1292 70.8549 27.4156 70.6831 27.7879C70.3108 28.332 70.0244 28.6899 69.8239 28.8617C69.6235 29.0336 69.3371 29.3343 68.9648 29.7638L68.4494 30.1504L68.1057 30.58L67.7191 30.8807C67.6332 30.9093 67.533 31.0382 67.4184 31.2673C67.3039 31.4677 67.2323 31.568 67.2037 31.568C66.8027 31.7684 66.5307 31.883 66.3875 31.9116C66.273 31.9402 66.2014 31.9689 66.1727 31.9975C66.0582 32.0261 65.9723 32.0405 65.915 32.0405C65.4568 32.0118 65.1561 31.9689 65.0129 31.9116C64.7552 31.7684 64.6263 31.5393 64.6263 31.2243V31.1384C64.655 31.0525 64.6693 30.9809 64.6693 30.9236L64.6263 30.3222C64.7122 29.9786 64.8125 29.6063 64.927 29.2054C65.1847 28.5467 65.3136 28.1745 65.3136 28.0885C65.4854 27.2581 65.6859 26.5278 65.915 25.8978C66.0582 25.5255 66.1298 25.2535 66.1298 25.0817C66.1298 25.0244 66.187 24.8669 66.3016 24.6091C66.3589 24.5232 66.4161 24.3228 66.4734 24.0078C66.502 23.9219 66.5307 23.8073 66.5593 23.6641C66.588 23.6355 66.6023 23.6069 66.6023 23.5782C66.6023 23.3491 66.4591 23.2346 66.1727 23.2346C65.8577 23.2346 65.5427 23.435 65.2277 23.8359C65.1991 23.8932 64.97 24.1366 64.5404 24.5662L64.2827 24.8239L64.0679 25.0817C63.9533 25.1962 63.7386 25.3537 63.4236 25.5542Z" fill="#E62E2E"/>
<path d="M83.5429 26.5851L83.3711 26.8858C83.3711 26.9431 83.2995 27.0433 83.1563 27.1865C82.784 27.4442 82.5406 27.6447 82.426 27.7879C82.3115 27.931 82.0251 28.0313 81.5669 28.0885C81.1374 28.0313 80.894 27.7735 80.8367 27.3153C80.808 27.2008 80.7221 27.1006 80.5789 27.0147C80.5789 26.986 80.6219 26.9287 80.7078 26.8428C80.7078 26.6424 80.9083 26.399 81.3092 26.1126C81.3092 26.1126 81.4381 25.9837 81.6958 25.726C81.7531 25.6687 81.8533 25.6114 81.9965 25.5542C82.1397 25.4683 82.2399 25.3967 82.2972 25.3394C82.3258 25.2535 82.3401 25.1819 82.3401 25.1246L82.5549 24.9098C82.6122 24.9098 82.6551 24.8669 82.6838 24.781L82.8126 24.5232C82.9272 24.3228 83.2851 23.9648 83.8865 23.4493C84.2588 23.1057 84.7886 22.5473 85.4759 21.7741L85.6477 21.5163C85.7909 21.2873 85.9913 20.9866 86.2491 20.6143C86.3923 20.4711 86.4639 20.3709 86.4639 20.3136L86.5068 20.2277C86.5068 20.2277 86.5927 20.0988 86.7646 19.8411C86.8218 19.7552 86.9507 19.6263 87.1511 19.4545C87.4948 18.8245 87.9673 17.9797 88.5687 16.9201C88.626 16.8628 88.9266 16.333 89.4707 15.3307C89.528 15.1876 89.5853 15.0587 89.6426 14.9441L89.6855 14.9012C89.5996 14.7866 89.4994 14.7294 89.3848 14.7294L89.0842 14.7723L88.6546 14.7294H88.4398C88.3539 14.7007 88.2823 14.6864 88.225 14.6864L88.1821 14.7294C88.1248 14.758 88.0675 14.7723 88.0103 14.7723L87.1941 14.7294C86.7359 14.7294 86.1345 14.6864 85.39 14.6005H85.347C85.2038 14.6291 85.032 14.6578 84.8316 14.6864C84.8316 14.6864 84.8172 14.6721 84.7886 14.6435L84.6168 14.5146C84.5595 14.5146 84.5022 14.5003 84.4449 14.4716C84.3877 14.443 84.2874 14.4144 84.1443 14.3857L83.9295 14.3428C83.7863 14.3141 83.6861 14.0994 83.6288 13.6984C83.6861 12.4384 83.729 11.7941 83.7577 11.7654C83.8722 11.3932 84.0011 11.1784 84.1443 11.1211C84.2874 11.0638 84.5738 11.0495 85.0034 11.0781L85.6047 11.1211L86.2061 11.0781C86.4066 11.0495 86.5641 11.0781 86.6786 11.1641C86.7073 11.1927 86.7502 11.207 86.8075 11.207C86.8361 11.207 86.8791 11.1927 86.9364 11.1641C86.9936 11.1068 87.0939 11.0781 87.2371 11.0781L87.9244 11.1641L88.4398 11.1211C88.4971 11.1211 88.5973 11.1497 88.7405 11.207L88.9123 11.25C88.9696 11.2786 89.0269 11.2929 89.0842 11.2929C89.1414 11.2929 89.3705 11.2213 89.7714 11.0781C89.886 11.0495 90.0005 11.0209 90.1151 10.9922C90.201 10.9922 90.3012 11.0209 90.4158 11.0781C90.5303 11.1354 90.6162 11.1641 90.6735 11.1641C91.1031 11.0781 91.3751 10.9779 91.4897 10.8634C91.4897 10.8634 91.5899 10.6486 91.7904 10.219C91.8763 10.0472 91.9765 9.84675 92.091 9.61765C92.091 9.56038 92.2772 9.14514 92.6495 8.37194C92.764 8.20012 92.9502 7.94239 93.2079 7.59874C93.3511 7.31237 93.6518 7.16919 94.11 7.16919C94.2818 7.16919 94.5252 7.32669 94.8402 7.6417C95.0407 7.84216 95.1409 8.17148 95.1409 8.62967C95.1409 8.85877 95.0693 9.13082 94.9261 9.44583C94.7829 9.76084 94.7113 9.98993 94.7113 10.1331L94.5825 10.5197C94.4966 10.6915 94.4536 10.8204 94.4536 10.9063C94.4536 10.9636 94.5395 11.0495 94.7113 11.1641C94.9118 11.2786 95.0263 11.6795 95.055 12.3668L95.012 12.8823C94.9834 13.3405 94.9547 13.7843 94.9261 14.2139C94.9261 14.3857 94.8688 14.5146 94.7543 14.6005C94.6397 14.6864 94.1815 14.7866 93.3797 14.9012C93.0647 14.9012 92.9072 15.2735 92.9072 16.018C92.8499 16.1326 92.764 16.376 92.6495 16.7483C92.5922 16.9774 92.5206 17.2494 92.4347 17.5644C92.4347 17.5931 92.4061 17.7076 92.3488 17.9081C92.2915 18.0799 92.177 18.4522 92.0051 19.0249L91.7904 19.7981C91.7617 19.9413 91.6901 20.1704 91.5756 20.4854C91.461 21.1727 91.2892 21.9889 91.0601 22.9339C90.8024 24.0794 90.6449 25.0673 90.5876 25.8978C90.5876 25.9551 90.5446 26.1985 90.4587 26.6281C90.516 27.344 90.6306 27.7019 90.8024 27.7019C91.0315 27.7019 91.3322 27.4729 91.7044 27.0147C91.7904 26.9574 91.9192 26.8572 92.091 26.714L92.7783 26.1126C92.9502 25.9694 93.1506 25.8119 93.3797 25.6401C93.4943 25.5542 93.6804 25.4396 93.9381 25.2964C93.9668 25.2392 94.0097 25.1819 94.067 25.1246C94.067 24.8669 94.4393 24.6664 95.1838 24.5232C95.3557 24.5232 95.5275 24.6378 95.6993 24.8669C95.8998 25.0673 96 25.2678 96 25.4683C96 25.8692 95.9141 26.1269 95.7423 26.2415C95.5704 26.3274 95.3986 26.4849 95.2268 26.714V26.671C95.2268 26.6424 95.2125 26.6281 95.1838 26.6281V26.671C95.1552 26.7283 95.0836 26.8285 94.9691 26.9717L94.7543 27.1865C94.4393 27.4156 94.2388 27.5874 94.1529 27.7019L93.9811 27.8738L93.8522 28.0456C93.8522 28.0456 93.8236 28.0742 93.7663 28.1315L93.4227 28.3463C93.394 28.3463 93.3511 28.3749 93.2938 28.4322L92.9502 28.8188C92.8642 28.9047 92.6065 29.1481 92.1769 29.549C92.091 29.6063 91.8906 29.8211 91.5756 30.1934C91.5469 30.2506 91.0172 30.7088 89.9862 31.568C89.4135 32.0548 88.9696 32.2982 88.6546 32.2982C88.5973 32.2982 88.4685 32.2266 88.268 32.0834C88.1821 32.0261 87.9959 31.9259 87.7096 31.7827C87.3087 31.6109 87.0509 31.3245 86.9364 30.9236C86.8791 30.7232 86.8505 30.265 86.8505 29.549C86.8505 29.3486 86.8791 29.0765 86.9364 28.7329V27.8308C87.0509 27.1722 87.1368 26.7426 87.1941 26.5421C87.2514 26.3417 87.28 26.1126 87.28 25.8549C87.28 25.8835 87.3946 25.2105 87.6237 23.8359L87.7525 23.0627C87.7812 22.9768 87.91 22.6905 88.1391 22.2036C88.1678 22.175 88.1821 22.1464 88.1821 22.1177C88.1821 22.0032 88.1248 21.9459 88.0103 21.9459C87.9243 21.9459 87.7668 22.132 87.5377 22.5043C87.2227 22.8193 86.9507 23.0771 86.7216 23.2775C86.6357 23.4493 86.5927 23.5496 86.5927 23.5782C86.4495 23.6928 86.0343 24.0794 85.347 24.738C85.2897 24.7953 85.1466 24.9671 84.9175 25.2535L84.8316 25.3823L83.7577 26.3274C83.5858 26.4706 83.5142 26.5565 83.5429 26.5851Z" fill="#E62E2E"/>
</svg>
