<svg width="120" height="42" viewBox="0 0 120 42" fill="none" xmlns="http://www.w3.org/2000/svg">
<path d="M0.644334 5.69161L0.590639 4.99358C0.984399 3.13218 1.68243 2.02249 2.68472 1.66453C2.8995 1.66453 3.02479 1.64663 3.06058 1.61083L3.97339 1.34236L4.29556 1.28867L5.74531 1.12758C6.06747 1.09179 6.28225 1.07389 6.38964 1.07389L6.8192 1.12758C6.8192 1.12758 7.08767 1.05599 7.62461 0.912804C7.83939 0.841212 8.19735 0.787518 8.6985 0.751722L9.28914 0.805416L10.6315 0.644332C10.7031 0.644332 10.7926 0.66223 10.9 0.698025C11.079 0.590638 11.2221 0.536944 11.3295 0.536944L12.0276 0.644332L12.5108 0.536944C12.7614 0.57274 12.9225 0.626434 12.9941 0.698025L13.1014 0.805416L13.4773 0.751722C13.6205 0.751722 13.71 0.733823 13.7458 0.698025C13.7816 0.698025 13.8353 0.733822 13.9069 0.805416C13.9785 0.877008 14.0501 0.912804 14.1216 0.912804L14.8197 0.805416C14.8555 0.805416 14.9271 0.859111 15.0345 0.966501L15.2492 1.02019L15.4103 0.966501C15.5177 0.894907 15.7325 0.841212 16.0546 0.805416C16.3768 0.805416 16.6811 0.948602 16.9675 1.23497C17.0748 1.34236 17.1822 1.39605 17.2896 1.39605C17.397 1.36026 17.5044 1.28867 17.6118 1.18128L17.8266 1.07389C18.0055 1.0023 18.2024 1.16338 18.4172 1.55714C18.632 1.9151 18.7394 2.25517 18.7394 2.57733V2.9532C18.7752 3.02479 18.7931 3.09638 18.7931 3.16797C18.7931 3.20377 18.7573 3.29326 18.6857 3.43645C18.6499 3.57963 18.6141 3.70492 18.5783 3.81231C18.7573 4.56403 18.8468 5.06518 18.8468 5.31575C18.8468 5.67371 18.7215 5.85269 18.4709 5.85269C18.4709 5.85269 18.4172 5.8348 18.3098 5.799C18.2382 5.76321 18.095 5.74531 17.8803 5.74531H17.2359C17.0211 5.70951 16.7348 5.67371 16.3768 5.63792C15.7683 5.60212 15.106 5.49473 14.3901 5.31575C14.3543 5.31575 14.2469 5.36945 14.0679 5.47684C13.889 5.58422 13.7816 5.63792 13.7458 5.63792L12.5108 5.53053C12.3318 5.53053 12.1349 5.63792 11.9202 5.85269C11.9202 5.99588 12.296 6.37174 13.0478 6.98028C13.0836 7.01608 13.2267 7.37404 13.4773 8.05417C13.7279 8.7343 13.8532 9.11016 13.8532 9.18175C13.8532 9.18175 13.8353 9.23545 13.7995 9.34283C13.7637 9.45022 13.7458 9.57551 13.7458 9.7187L13.7995 10.363L13.531 11.2221L13.5847 12.2423C13.2983 13.0657 13.0657 14.0501 12.8867 15.1955C12.8867 15.5535 12.8688 15.7862 12.833 15.8936L12.7793 16.2694C12.7793 16.3768 12.7256 16.5379 12.6182 16.7527L12.5645 17.2359C12.5287 17.4865 12.4392 17.9518 12.296 18.632C12.2602 18.6678 12.2423 18.811 12.2423 19.0615C12.2065 19.9922 11.9202 21.0482 11.3832 22.2295L11.4369 23.0349L11.3832 23.4108C11.24 24.4131 11.1684 24.8963 11.1684 24.8605C11.1327 25.0753 11.0969 25.3617 11.0611 25.7196C11.0611 25.6839 10.9716 26.2924 10.7926 27.5453C10.7926 27.7958 10.7568 28.1896 10.6852 28.7265C10.6852 28.9413 10.6673 29.0666 10.6315 29.1024L10.3093 29.693C10.3093 29.7288 10.2914 29.7467 10.2556 29.7467C10.2556 29.7467 10.2735 29.7825 10.3093 29.8541C10.3809 29.8899 10.4167 29.9794 10.4167 30.1226C10.3809 31.3039 10.3093 32.1809 10.2019 32.7536L10.2556 34.2571C10.2556 34.3645 10.2198 34.6508 10.1483 35.1162C10.1125 35.1878 10.0946 35.2594 10.0946 35.331C10.1662 35.7247 10.2556 36.1722 10.363 36.6733C10.363 37.2461 10.0051 37.6577 9.28914 37.9083C9.14596 37.9799 8.98487 38.1052 8.80589 38.2842C8.62691 38.4989 8.44793 38.6063 8.26895 38.6063C8.08997 38.6063 7.89309 38.4094 7.67831 38.0157C7.46353 37.5861 7.35614 37.2103 7.35614 36.8881C7.35614 36.7091 7.40984 36.548 7.51722 36.4048C7.55302 36.3691 7.57092 36.3333 7.57092 36.2975C7.57092 36.2617 7.53512 36.2438 7.46353 36.2438C7.35614 36.1006 7.26665 35.85 7.19506 35.492C7.15926 35.0983 7.12347 34.8477 7.08767 34.7403C7.01608 34.4897 6.98028 34.2571 6.98028 34.0423C6.98028 33.7201 6.99818 33.4874 7.03397 33.3443C7.06977 33.2011 7.10557 33.0221 7.14136 32.8073C7.14136 32.7357 7.10557 32.5567 7.03397 32.2704V32.0556C6.96238 31.7692 6.90869 31.5902 6.87289 31.5187C6.8371 31.4471 6.8192 31.3934 6.8192 31.3576C6.8192 31.3218 6.8371 31.286 6.87289 31.2502C6.90869 31.1786 6.92659 31.107 6.92659 31.0354L6.87289 29.8541C6.87289 29.7467 6.90869 29.6035 6.98028 29.4246C7.05187 29.2456 7.08767 29.1203 7.08767 29.0487C7.08767 29.0129 7.05187 28.9234 6.98028 28.7802C6.94448 28.6012 6.92659 28.4581 6.92659 28.3507C6.99818 27.3484 7.06977 26.2029 7.14136 24.9142C7.17716 24.1983 7.23085 23.2855 7.30245 22.1758C7.30245 22.0684 7.35614 21.6389 7.46353 20.8871C7.49933 20.6008 7.55302 19.8491 7.62461 18.632C7.62461 18.4888 7.66041 18.2024 7.732 17.7729C7.8036 17.4507 7.83939 16.8601 7.83939 16.0009C7.83939 15.643 7.87519 15.3924 7.94678 15.2492C7.98258 15.2134 8.00048 15.1776 8.00048 15.1418C8.00048 15.106 7.98258 15.0702 7.94678 15.0344C7.91098 14.9629 7.89309 14.8913 7.89309 14.8197C7.89309 14.8197 8.01837 14.4259 8.26895 13.6384C8.34054 13.4236 8.41213 13.2088 8.48373 12.9941C8.48373 12.9225 8.43003 12.8151 8.32264 12.6719L8.21525 12.3497C8.21525 12.3139 8.23315 12.2781 8.26895 12.2423C8.30474 12.2065 8.35844 11.9381 8.43003 11.4369V11.1684L8.53742 10.3093L8.59111 9.665C8.59111 9.55761 8.66271 9.18175 8.80589 8.53742L8.7522 7.7857C8.7522 7.7141 8.78799 7.57092 8.85959 7.35614C8.96698 7.10557 9.02067 6.90869 9.02067 6.7655C9.02067 6.47913 8.93118 6.30015 8.7522 6.22856C8.21525 6.01378 7.91098 5.90639 7.83939 5.90639C7.8036 5.90639 7.67831 5.97798 7.46353 6.12117C7.28455 6.22856 7.17716 6.28225 7.14136 6.28225C6.8192 6.28225 6.60442 6.30015 6.49703 6.33595L6.28225 6.44334H5.96009C5.92429 6.44334 5.72741 6.47913 5.36945 6.55072C4.8325 6.7655 4.49244 6.87289 4.34925 6.87289L3.75861 6.92659C3.72282 6.92659 3.65122 6.94448 3.54383 6.98028L2.9532 7.30245C2.9174 7.30245 2.82791 7.32034 2.68472 7.35614C2.57733 7.39194 2.41625 7.44563 2.20147 7.51722L1.9867 7.62461L1.55714 7.67831C1.41395 7.67831 1.23497 7.732 1.02019 7.83939C0.805417 7.91098 0.662232 7.94678 0.590639 7.94678C0.19688 7.94678 0 7.7141 0 7.24875C0 7.21296 0.0357963 7.05187 0.107389 6.7655C0.465352 6.12117 0.644334 5.7632 0.644334 5.69161Z" fill="#E62E2E"/>
<path d="M16.6826 33.8275L17.1122 33.398C17.1838 33.3264 17.2196 33.219 17.2196 33.0758C17.2196 33.0042 17.2017 32.9147 17.1659 32.8073C16.7005 33.1295 16.3962 33.3801 16.2531 33.559C16.1099 33.738 15.7519 33.8633 15.1792 33.9349C14.6422 33.8633 14.338 33.5411 14.2664 32.9684C14.2306 32.8252 14.1232 32.6999 13.9442 32.5925C13.9442 32.5567 13.9979 32.4851 14.1053 32.3778C14.1053 32.3778 14.1411 32.2525 14.2127 32.0019C14.2485 31.8945 14.4632 31.6976 14.857 31.4113C14.9286 31.3397 15.0897 31.1965 15.3403 30.9817C15.5192 30.8743 15.7698 30.6953 16.092 30.4448L16.2531 30.23V30.1226C16.2531 30.051 16.3605 29.9436 16.5752 29.8004L16.7363 29.4783C16.7721 29.4067 16.8795 29.2814 17.0585 29.1024C17.1301 29.0308 17.4522 28.816 18.025 28.4581L19.3136 27.6526C19.6 27.2947 20.0475 26.7577 20.656 26.0418C20.7276 25.9344 20.7813 25.8807 20.8171 25.8807L21.1393 25.7196C21.2109 25.6839 21.354 25.5228 21.5688 25.2364C21.6762 25.129 21.891 24.95 22.2131 24.6995C22.5353 24.4489 23.0723 24.0193 23.824 23.4108C24.0388 23.2676 24.4325 22.9454 25.0053 22.4443C25.22 22.2295 25.5243 21.9789 25.9181 21.6926L26.7772 20.8871C26.7772 20.8871 27.0993 20.6366 27.7437 20.1354C27.7437 20.1354 27.8511 20.0638 28.0658 19.9206C28.209 19.8848 28.4417 19.7417 28.7639 19.4911L29.623 18.9541C29.6588 18.9541 29.7125 18.9183 29.7841 18.8468C29.8915 18.7752 30.0346 18.7215 30.2136 18.6857C30.3926 18.6499 30.5895 18.6141 30.8043 18.5783C30.9117 18.5783 31.0727 18.5425 31.2875 18.4709C31.5381 18.3993 31.6992 18.3635 31.7708 18.3635C32.0213 18.3635 32.3077 18.5246 32.6299 18.8468C32.952 19.1689 33.1131 19.4553 33.1131 19.7059C33.1131 19.9922 32.8804 20.4039 32.4151 20.9408C31.9855 21.442 31.5381 21.7821 31.0727 21.961C31.0369 21.9968 30.9832 22.0684 30.9117 22.1758C30.8401 22.2474 30.7506 22.3906 30.6432 22.6054C30.5358 22.8201 30.3926 22.9633 30.2136 23.0349C29.9273 23.2855 29.6051 23.5719 29.2471 23.894L29.0323 24.1088C28.9965 24.2162 28.9071 24.2878 28.7639 24.3236L28.4417 24.5921L28.2806 24.7531C28.1016 25.0753 27.9406 25.2722 27.7974 25.3438C27.69 25.4154 27.5647 25.5407 27.4215 25.7196L27.2067 25.9881L27.0993 26.0955L26.5624 26.4177C26.5266 26.4177 26.4908 26.4714 26.455 26.5788L26.2939 26.9546C26.2581 26.9904 26.1507 27.0799 25.9718 27.2231L25.7033 27.4379L25.4348 27.76C25.4348 27.76 25.2916 27.8495 25.0053 28.0285C24.7547 28.2075 24.6294 28.3328 24.6294 28.4044L24.4146 28.8339C24.4146 28.8339 24.3072 28.9413 24.0925 29.1561C24.0209 29.1919 23.9135 29.3172 23.7703 29.532C23.7345 29.5678 23.6987 29.6035 23.6629 29.6393C23.6629 29.6751 23.287 30.0689 22.5353 30.8206L22.3205 31.0354C22.1774 31.1786 22.1058 31.2681 22.1058 31.3039C21.9626 31.5902 21.7836 31.8945 21.5688 32.2167L21.4077 32.3778C21.3719 32.4136 21.3361 32.4673 21.3003 32.5388C21.3003 32.6104 21.3003 32.6641 21.3003 32.6999C21.3003 32.7357 21.2824 32.7715 21.2466 32.8073L21.4077 32.9147C21.5151 32.8789 21.6583 32.8431 21.8373 32.8073C22.0163 32.7357 22.2847 32.5388 22.6427 32.2167C22.8217 32.1093 23.0902 31.9124 23.4481 31.626C23.5913 31.4829 23.7882 31.3218 24.0388 31.1428C24.0388 31.1428 24.1819 30.9996 24.4683 30.7132C24.6831 30.5343 25.1663 30.1047 25.9181 29.4246C26.1686 29.2456 26.4908 29.0129 26.8846 28.7265C26.9204 28.6907 27.1351 28.4402 27.5289 27.9748C27.6363 27.8316 28.1016 27.4021 28.925 26.6861C29.5335 26.1492 29.9988 25.8807 30.321 25.8807C30.679 25.8807 30.8938 25.8628 30.9653 25.827C31.0727 25.7912 31.1622 25.7733 31.2338 25.7733C31.5918 25.7733 31.8603 25.9702 32.0392 26.364C32.0392 26.364 32.075 26.7219 32.1466 27.4379C32.1824 27.5811 32.2361 27.9032 32.3077 28.4044L32.2003 29.5856C32.2361 30.051 32.3614 30.6058 32.5762 31.2502C33.0415 31.8945 33.5248 32.2167 34.0259 32.2167C34.3123 32.2167 34.6703 31.9303 35.0998 31.3576C35.3146 31.0712 35.4757 30.9101 35.5831 30.8743L36.0663 30.6058C36.0663 30.6058 36.12 30.5521 36.2274 30.4448L36.4422 30.23C36.4422 29.7288 36.9075 29.4783 37.8382 29.4783C38.053 29.4783 38.2678 29.6214 38.4826 29.9078C38.7331 30.1584 38.8584 30.409 38.8584 30.6595C38.8584 31.1965 38.7331 31.5008 38.4826 31.5723C38.232 31.8229 38.0351 32.0377 37.8919 32.2167V32.163C37.8919 32.1272 37.874 32.1093 37.8382 32.1093V32.163C37.8024 32.2346 37.713 32.3599 37.5698 32.5388L37.3013 32.8073C36.8001 33.2011 36.4243 33.559 36.1737 33.8812L35.9589 34.0423L35.422 34.5255C34.0975 35.7068 33.0236 36.2975 32.2003 36.2975C30.8401 36.2975 29.8736 35.9574 29.3008 35.2773C28.7639 34.5613 28.4596 34.0423 28.388 33.7201C28.2806 33.1832 28.2269 32.8968 28.2269 32.861C28.2269 32.682 28.1911 32.3778 28.1195 31.9482C28.0837 31.5186 27.9943 31.3039 27.8511 31.3039C27.7795 31.3039 27.6005 31.465 27.3141 31.7871C27.2425 31.8587 26.9562 32.0735 26.455 32.4315C26.3118 32.5388 26.1865 32.6641 26.0792 32.8073C26.0076 32.9505 25.9181 33.0758 25.8107 33.1832C25.3811 33.4338 25.059 33.6843 24.8442 33.9349L24.6294 34.2034C24.6294 34.2034 24.5399 34.275 24.3609 34.4181C24.2177 34.5255 23.9672 34.7403 23.6092 35.0625C22.3563 36.2438 21.3719 37.0313 20.656 37.425C20.4054 37.5682 20.1549 37.7114 19.9043 37.8546C19.8685 37.8546 19.779 37.9083 19.6358 38.0157L18.9915 38.3378L18.4545 38.3915C18.3114 38.3915 18.204 38.4094 18.1324 38.4452C18.0966 38.481 18.0608 38.4989 18.025 38.4989C17.8818 38.4989 17.7386 38.4452 17.5954 38.3378C17.488 38.2305 17.3985 38.1768 17.327 38.1768L16.6826 37.9083C16.3962 37.7293 16.2173 37.4429 16.1457 37.0492C16.1457 37.0134 16.1099 36.906 16.0383 36.727C15.9309 36.548 15.8772 36.3869 15.8772 36.2438C15.913 35.7068 16.0204 35.2773 16.1994 34.9551C16.4141 34.3108 16.5394 33.9886 16.5752 33.9886C16.5752 33.9528 16.611 33.8991 16.6826 33.8275Z" fill="#E62E2E"/>
<path d="M38.8047 31.8408L38.3215 32.2704C38.2499 32.342 38.0888 32.5209 37.8382 32.8073C37.3729 33.1295 37.0686 33.3801 36.9254 33.559C36.7822 33.738 36.4243 33.8633 35.8515 33.9349C35.3146 33.8633 35.0103 33.5411 34.9387 32.9684C34.9029 32.8252 34.7955 32.6999 34.6166 32.5925C34.6166 32.5567 34.6703 32.4851 34.7777 32.3778C34.7777 32.3778 34.8134 32.2525 34.885 32.0019C34.9208 31.8945 35.1356 31.6976 35.5294 31.4113C35.601 31.3397 35.7621 31.1965 36.0126 30.9817C36.1916 30.8743 36.4422 30.6953 36.7643 30.4448L36.8717 30.2837C36.9791 30.1405 37.1044 29.9794 37.2476 29.8004L37.4087 29.4783C37.6951 29.0487 38.1246 28.6191 38.6973 28.1896C39.4133 27.6526 39.7712 27.2589 39.7712 27.0083C39.7712 26.9725 39.7533 26.9009 39.7175 26.7935C39.6817 26.6861 39.6459 26.5609 39.6102 26.4177L39.8786 25.5049C39.8786 25.4333 39.8428 25.2901 39.7712 25.0753C39.7354 25.0037 39.7175 24.9321 39.7175 24.8605C39.7175 24.6816 39.807 24.1446 39.986 23.2497L40.0397 22.7128C40.1471 22.6054 40.2008 22.5338 40.2008 22.498L40.1471 22.3369V22.1758C40.2903 21.6031 40.3619 21.263 40.3619 21.1556C40.4693 20.4397 40.9525 18.5962 41.8116 15.6251C41.9548 15.3387 42.1159 14.9271 42.2949 14.3901L42.5633 13.5847C42.7065 13.1193 43.0108 12.4571 43.4762 11.598C43.6193 11.4548 43.7625 11.0969 43.9057 10.5241C43.9773 10.3093 44.0847 10.0409 44.2279 9.7187C44.2995 9.53972 44.3711 9.37863 44.4427 9.23545C44.5142 9.05647 44.6395 8.78799 44.8185 8.43003L45.7313 6.8192C46.0177 6.06747 46.4115 5.38734 46.9126 4.77881C47.199 4.27766 47.3601 4.00919 47.3959 3.97339L47.5569 3.75861L47.9328 3.32906C48.0044 3.18587 48.076 3.07848 48.1476 3.00689L48.3624 2.68472C48.6129 2.43415 48.9709 2.05829 49.4362 1.55714C49.5078 1.52134 49.651 1.46765 49.8658 1.39605C49.9374 1.36026 50.0806 1.30656 50.2954 1.23497C50.5459 1.12758 50.6891 1.07389 50.7249 1.07389L50.7786 1.12758L50.8323 1.07389C51.763 1.28867 52.2641 1.46765 52.3357 1.61083C52.8011 2.14778 53.0159 2.63103 52.9801 3.06058L52.9264 3.866L53.0338 4.61772C53.0338 4.68932 52.9622 4.8862 52.819 5.20836L52.8727 6.01378C52.8727 6.19276 52.8369 6.49703 52.7653 6.92659C52.7653 6.92659 52.7295 7.03397 52.6579 7.24875C52.5863 7.42773 52.4252 8.00047 52.1747 8.96697C52.2105 9.14596 52.2284 9.28914 52.2284 9.39653C52.2284 9.39653 52.2105 9.43233 52.1747 9.50392L52.0673 9.7187L52.121 10.0946C51.9062 10.4525 51.763 10.7747 51.6914 11.0611C51.6556 11.3116 51.5124 11.7054 51.2619 12.2423C51.1903 12.4571 51.1545 12.6003 51.1545 12.6719C51.0829 13.0299 50.9576 13.4236 50.7786 13.8532C50.707 14.1037 50.5101 14.7123 50.188 15.6788C50.1164 15.822 49.9374 16.1083 49.651 16.5379C49.5436 16.7527 49.3825 17.0211 49.1678 17.3433C49.0604 17.8445 48.8277 18.4351 48.4697 19.1152L48.2013 19.5448C48.0939 19.7954 47.8612 20.1354 47.5032 20.565C47.4316 20.6724 47.378 20.7798 47.3422 20.8871C47.1274 21.4241 46.8589 21.961 46.5367 22.498C46.4294 22.677 46.143 23.0886 45.6776 23.733L45.2481 24.4847C45.1049 24.6637 44.8364 25.129 44.4427 25.8807C44.4427 25.9165 44.21 26.1671 43.7446 26.6325C43.4583 26.9546 43.3151 27.241 43.3151 27.4916C43.3151 27.4916 43.333 27.5453 43.3688 27.6526L43.4225 28.2433C43.4583 28.6013 43.5298 28.9234 43.6372 29.2098L43.7446 29.5856C43.7446 29.6214 43.7804 29.7825 43.852 30.0689L44.0131 30.2837C44.0489 30.3195 44.1026 30.4448 44.1742 30.6595C44.4248 31.3755 44.9975 31.9482 45.8924 32.3778C46.5725 32.6283 46.9842 32.7536 47.1274 32.7536C47.5211 32.7536 48.076 32.6283 48.7919 32.3778C49.5078 32.1272 49.9732 31.8766 50.188 31.626C50.4027 31.3755 50.6354 31.1249 50.886 30.8743L51.4229 30.6058C51.4587 30.57 51.4945 30.5164 51.5303 30.4448C51.6019 30.3732 51.6735 30.3016 51.7451 30.23C51.7451 29.7288 52.2105 29.4783 53.1412 29.4783C53.3559 29.4783 53.5707 29.6214 53.7855 29.9078C54.0361 30.1584 54.1614 30.409 54.1614 30.6595C54.1614 31.1965 54.0361 31.5008 53.7855 31.5723C53.5349 31.8229 53.338 32.0377 53.1949 32.2167V32.163C53.1949 32.1272 53.177 32.1093 53.1412 32.1093V32.163C53.1054 32.2346 53.0159 32.3599 52.8727 32.5388C52.8727 32.5388 52.7832 32.6283 52.6042 32.8073C52.1747 33.1295 51.7809 33.4695 51.4229 33.8275L50.5101 34.7403C50.4027 34.8119 50.2238 34.9193 49.9732 35.0625L49.4362 35.492C48.5413 36.208 47.3064 36.6017 45.7313 36.6733L44.9796 36.4585L44.1742 36.5122C43.6372 36.548 42.9213 36.1185 42.0264 35.2236L41.8653 35.0625C41.6863 34.8835 41.4179 34.5434 41.0599 34.0423C40.8451 33.7559 40.7377 33.5769 40.7377 33.5053C40.5946 33.1116 40.4514 32.6999 40.3082 32.2704C40.2366 32.0556 40.1292 31.6976 39.986 31.1965C39.9502 31.1249 39.8965 31.0354 39.8249 30.928H39.7712C39.7712 30.9638 39.7533 30.9817 39.7175 30.9817C39.6817 30.9459 39.5386 31.0712 39.288 31.3576C39.0732 31.6081 38.9121 31.7692 38.8047 31.8408ZM47.3959 16.0009L47.6643 15.5177C47.7717 15.3387 47.897 15.0166 48.0402 14.5512C48.2192 13.7279 48.416 13.0836 48.6308 12.6182L48.7919 12.2423C48.8277 12.1707 48.8635 12.0276 48.8993 11.8128C48.8993 11.7054 48.9351 11.5801 49.0067 11.4369L48.953 10.6315C48.953 10.5957 49.0067 10.4883 49.1141 10.3093C49.2215 10.0946 49.2752 9.91558 49.2752 9.77239C49.2394 9.665 49.1857 9.61131 49.1141 9.61131C49.0425 9.6471 48.953 9.7187 48.8456 9.82609C48.6666 10.1125 48.5592 10.2556 48.5234 10.2556C48.2729 10.5062 48.1297 10.6852 48.0939 10.7926L47.9865 10.9L47.6106 11.3295C47.5748 11.3653 47.539 11.419 47.5032 11.4906L47.2348 12.0276L46.9126 12.5108C46.3399 13.3699 46.0535 14.0143 46.0535 14.4438C46.0535 14.5512 46.0714 14.6407 46.1072 14.7123C46.143 14.7481 46.1609 14.7839 46.1609 14.8197L46.1072 15.0344C45.8566 15.285 45.7313 15.5714 45.7313 15.8936C45.6239 16.0725 45.4807 16.3947 45.3018 16.8601C45.1944 17.0748 44.9975 17.4865 44.7111 18.095C44.7111 18.1666 44.6753 18.2561 44.6037 18.3635V18.8468C44.5679 18.9183 44.4964 19.0794 44.389 19.33C44.2816 19.5806 44.1921 19.7954 44.1205 19.9743L44.0131 20.565C44.0131 20.6366 43.9415 20.8335 43.7983 21.1556C43.6551 21.4778 43.5835 21.7284 43.5835 21.9073C43.5835 22.0863 43.6551 22.2116 43.7983 22.2832C43.8341 22.2832 43.852 22.2653 43.852 22.2295C43.8878 22.1937 43.9952 22.1042 44.1742 21.961C44.3532 21.8179 44.6037 21.442 44.9259 20.8335C45.0333 20.6545 45.2302 20.3144 45.5165 19.8133C45.6955 19.4553 45.964 19.0078 46.322 18.4709C46.5009 18.0771 46.6978 17.7371 46.9126 17.4507C46.9842 17.3433 47.0916 17.039 47.2348 16.5379C47.3064 16.4305 47.3601 16.2515 47.3959 16.0009Z" fill="#E62E2E"/>
<path d="M51.9809 28.8876L52.1956 28.0285C52.2314 27.9569 52.2493 27.8674 52.2493 27.76C52.2493 27.6884 52.2135 27.5274 52.1419 27.2768C52.1061 27.2052 52.0882 27.1515 52.0882 27.1157C52.0882 26.543 52.4641 25.6839 53.2158 24.5384C53.359 24.3236 53.9318 24.1088 54.934 23.894C55.3994 23.6793 55.6321 23.3392 55.6321 22.8738C55.7395 22.6591 55.8111 22.498 55.8469 22.3906C55.8827 22.2832 55.9542 22.0147 56.0616 21.5852C56.0974 21.5136 56.1332 21.442 56.169 21.3704L56.3838 21.1019C56.3838 21.1019 56.4554 20.9587 56.5986 20.6724C56.6344 20.6366 56.7597 20.4397 56.9744 20.0817V19.2226C57.0818 19.0078 57.225 18.5962 57.404 17.9876L57.8336 16.5379C57.8693 16.3589 57.9588 16.162 58.102 15.9473C58.2452 15.6967 58.3347 15.5177 58.3705 15.4103C58.4063 15.2671 58.4779 15.0344 58.5853 14.7123C58.6211 14.5691 58.6569 14.3722 58.6927 14.1216C58.7285 13.9785 58.7822 13.7816 58.8537 13.531L58.9611 13.2088L59.1222 12.6182L59.337 12.1349L59.4981 11.598C59.6413 11.24 59.8918 10.6315 60.2498 9.77239C60.3214 9.62921 60.4288 9.34284 60.572 8.91328C60.6794 8.66271 60.8225 8.44793 61.0015 8.26895C61.0731 8.12576 61.1805 7.98258 61.3237 7.83939C61.5743 7.44563 61.7532 7.23085 61.8606 7.19506L61.9143 7.03397C61.9143 6.96238 61.7353 6.7655 61.3774 6.44334C61.27 6.33595 61.2163 6.15696 61.2163 5.90639C61.2163 5.51263 61.449 5.08307 61.9143 4.61772C62.1291 4.43874 62.6303 4.29556 63.4178 4.18817C63.8115 4.04498 64.2232 3.45434 64.6527 2.41625C64.7243 2.20147 64.9212 2.05829 65.2434 1.9867C65.315 1.9867 65.3866 1.9509 65.4582 1.8793L65.7803 1.61083C65.8519 1.53924 65.9235 1.48555 65.9951 1.44975L66.371 1.28867C66.6215 1.10969 67.0153 0.823314 67.5522 0.429553C67.6954 0.322166 67.9997 0.178981 68.4651 0L68.5188 0.0536938C68.5545 0.0536938 68.6798 0.0894896 68.8946 0.161081C69.5389 0.268471 69.8611 0.590638 69.8611 1.12758C69.8611 1.27077 69.7716 1.52134 69.5926 1.8793C69.5568 1.9509 69.4852 2.11198 69.3779 2.36255L69.2168 2.73842C69.181 2.81001 69.1452 2.8637 69.1094 2.8995L69.0557 3.54383C69.0557 3.57963 68.9841 3.72282 68.8409 3.97339C68.6977 4.18817 68.6261 4.36715 68.6261 4.51033C68.6261 4.65352 68.7693 4.8862 69.0557 5.20836C69.3421 5.49473 69.6284 5.67371 69.9148 5.74531C70.2012 5.8169 70.5054 5.94219 70.8276 6.12117C71.0066 6.19276 71.2035 6.26435 71.4182 6.33595C71.9552 6.47913 72.2953 6.90869 72.4384 7.62461C72.4384 7.732 72.5279 8.05417 72.7069 8.59111C72.8143 8.87748 72.9933 10.2914 73.2439 12.833C73.2439 13.012 73.1902 13.2267 73.0828 13.4773C73.0112 13.6921 72.9754 13.8532 72.9754 13.9606C72.9754 14.1395 73.0291 14.3543 73.1365 14.6049C73.3155 15.0344 73.4049 15.3566 73.4049 15.5714L73.3513 16.162L73.4049 16.7527C73.4049 16.8601 73.387 16.9853 73.3513 17.1285C73.3155 17.2717 73.2976 17.397 73.2976 17.5044C73.2976 17.576 73.3155 17.6834 73.3513 17.8266C73.4228 18.1129 73.4586 18.2919 73.4586 18.3635C73.4586 18.3993 73.4407 18.4709 73.4049 18.5783C73.4049 18.5067 73.3691 18.8647 73.2976 19.6522C73.2976 20.6545 73.3155 21.1914 73.3513 21.263C73.4228 21.3346 73.6018 21.3883 73.8882 21.4241C74.1746 21.4241 74.3178 21.621 74.3178 22.0147C74.3178 22.0147 74.2641 22.0863 74.1567 22.2295C74.0851 22.3369 74.0493 22.4801 74.0493 22.6591L73.9956 23.0349C73.9598 23.1781 73.7629 23.375 73.4049 23.6256C73.226 23.733 73.1365 23.8761 73.1365 24.0551L73.1902 24.8068C73.1186 25.6302 73.0112 26.4714 72.868 27.3305C72.868 27.4021 72.8859 27.4916 72.9217 27.599C72.9575 27.6705 72.9754 27.7242 72.9754 27.76C72.9754 27.7958 72.9396 27.8853 72.868 28.0285C72.8322 28.1359 72.7964 28.3149 72.7606 28.5655C72.7606 28.7802 72.7427 28.995 72.7069 29.2098C72.7069 29.4246 72.689 29.6393 72.6532 29.8541L72.7069 30.7669C72.5637 31.3039 72.4921 31.6976 72.4921 31.9482C72.4921 32.1988 72.4563 32.4315 72.3848 32.6462C72.349 32.861 72.3132 33.1116 72.2774 33.398C72.2058 33.8275 72.1342 34.0781 72.0626 34.1497C72.0268 34.2213 72.0089 34.2929 72.0089 34.3645C72.0089 34.3645 72.0268 34.4003 72.0626 34.4718C72.0984 34.5434 72.1342 34.7224 72.17 35.0088C72.0984 35.2594 72.0447 35.4562 72.0089 35.5994C72.0089 35.7426 71.9552 35.9932 71.8478 36.3512L71.5793 37.1566C71.5793 37.8725 71.2572 38.4452 70.6128 38.8748C70.5054 38.9464 70.4339 39.0001 70.3981 39.0359L70.0759 39.3043C69.8611 39.5191 69.6642 39.6265 69.4853 39.6265C69.3063 39.6265 69.1273 39.1254 68.9483 38.1231C68.9483 38.0515 68.9662 37.962 69.002 37.8546C69.0378 37.7114 69.0915 37.2998 69.1631 36.6196L69.0557 35.8142C69.0199 35.7426 69.002 35.671 69.002 35.5994C69.002 35.5636 69.0199 35.492 69.0557 35.3847C69.0915 35.2415 69.1094 35.1162 69.1094 35.0088L69.0557 34.2034C69.1273 33.4874 69.1631 33.0758 69.1631 32.9684C69.1631 32.8252 69.1989 32.503 69.2705 32.0019L69.1631 31.3576C69.1631 31.286 69.1989 31.2144 69.2705 31.1428C69.3421 31.0354 69.3779 30.9638 69.3779 30.928C69.1631 30.6416 69.0557 30.4448 69.0557 30.3374C69.0557 30.3016 69.0736 30.23 69.1094 30.1226L69.1631 29.532V29.1024C69.1989 28.9592 69.2168 28.8339 69.2168 28.7265L69.1631 28.1359C69.3063 27.7779 69.3779 27.5274 69.3779 27.3842C69.3421 27.0262 69.2884 26.4177 69.2168 25.5586C69.181 25.0216 69.0557 24.7889 68.8409 24.8605C68.3756 25.0037 68.0176 25.1469 67.767 25.2901C67.3375 25.5407 66.7647 25.666 66.0488 25.666L65.136 25.7733C65.0286 25.7733 64.5633 25.9523 63.7399 26.3103C63.5968 26.3461 63.3999 26.3998 63.1493 26.4714C62.3618 26.6146 61.8069 26.7577 61.4848 26.9009C61.3058 27.0441 61.0731 27.1694 60.7867 27.2768C60.5362 27.3842 60.2498 27.5274 59.9276 27.7063C59.6055 27.8853 59.3191 28.0106 59.0685 28.0822C58.9611 28.0822 58.818 28.118 58.639 28.1896L58.4242 28.297L57.7799 28.1896C57.5651 28.4402 57.225 29.2993 56.7597 30.7669C56.6881 30.9817 56.6165 31.1607 56.5449 31.3039C56.3301 31.626 56.0437 32.2167 55.6858 33.0758C55.65 33.5769 55.5605 34.096 55.4173 34.6329C55.4173 34.7403 55.3099 35.1162 55.0951 35.7605C55.0235 35.9037 54.8804 36.208 54.6656 36.6733L54.6119 37.2103L54.4508 37.7472C54.4508 37.5682 54.3971 37.8546 54.2897 38.6063L53.8602 39.5728C53.8244 39.6086 53.8065 39.6623 53.8065 39.7339C53.8065 39.8055 53.7349 40.0382 53.5917 40.4319L53.3232 40.7541L53.1621 41.0226C53.0905 41.0942 52.9474 41.1479 52.7326 41.1837C52.5178 41.2195 52.3388 41.2552 52.1956 41.291C52.0167 41.3268 51.8377 41.3626 51.6587 41.3984C51.4797 41.3984 51.3007 41.2552 51.1217 40.9689C50.9428 40.7183 50.8712 40.4498 50.907 40.1635C50.9428 39.6623 50.9786 39.3043 51.0144 39.0896C51.0144 38.9106 51.1575 38.3736 51.4439 37.4787C51.5155 37.264 51.6229 36.8165 51.7661 36.1364C51.8735 35.8142 51.9809 35.5278 52.0882 35.2773L52.1956 34.8477C52.3388 34.5255 52.4283 34.0781 52.4641 33.5053C52.7147 32.4315 53.0726 31.2144 53.538 29.8541C53.538 29.7825 53.4843 29.7288 53.3769 29.693L52.5178 29.7467C52.1598 29.7825 51.9809 29.5141 51.9809 28.9413V28.8876ZM62.1828 22.9812L62.6661 22.8738C62.9882 22.8022 63.203 22.7665 63.3104 22.7665C63.382 22.8022 63.4536 22.838 63.5252 22.8738C63.5968 22.8738 63.6862 22.8917 63.7936 22.9275C64.0084 22.9275 64.2769 22.8738 64.5991 22.7665C64.9212 22.6591 65.1181 22.6054 65.1897 22.6054L65.9951 22.6591C66.0309 22.6949 66.0667 22.7128 66.1025 22.7128C66.1383 22.7128 66.192 22.6949 66.2636 22.6591C66.55 22.4443 66.9079 22.3369 67.3375 22.3369C67.5523 22.3011 67.7312 22.2832 67.8744 22.2832C67.9102 22.2474 68.1966 22.2116 68.7335 22.1758C69.0557 22.1042 69.2168 21.9431 69.2168 21.6926L69.1631 21.1019L69.2168 20.4576L69.1631 20.028C69.1631 19.6701 69.181 19.3479 69.2168 19.0615C69.2168 18.5962 69.2347 18.0592 69.2705 17.4507C69.2705 17.4149 69.181 17.2896 69.002 17.0748C69.002 17.039 68.9841 17.0032 68.9483 16.9674L69.0557 15.5177C69.0557 15.4103 69.002 15.2671 68.8946 15.0881C68.823 14.8734 68.7872 14.7302 68.7872 14.6586C68.823 14.5512 68.8409 14.4259 68.8409 14.2827C68.8767 14.1037 68.9125 13.9785 68.9483 13.9069C68.9483 13.7995 68.8409 13.6026 68.6261 13.3162C68.5903 13.2446 68.4472 12.9762 68.1966 12.5108C67.9818 12.0455 67.588 11.5801 67.0153 11.1148C66.4426 10.6136 66.013 10.363 65.7266 10.363C65.4403 10.363 65.2434 10.4704 65.136 10.6852C64.9212 11.0074 64.7601 11.2221 64.6527 11.3295C64.4022 11.5801 64.2411 11.9023 64.1695 12.296C63.9547 12.7256 63.6505 13.4057 63.2567 14.3364C62.9345 15.0881 62.6124 15.6251 62.2902 15.9473C62.1828 16.0904 62.1291 16.3589 62.1291 16.7527C62.0575 16.9317 61.8606 17.397 61.5385 18.1487C61.4669 18.4351 61.3416 18.7573 61.1626 19.1152C61.091 19.33 60.9657 19.7059 60.7867 20.2428C60.7152 20.4934 60.5362 20.8335 60.2498 21.263L59.7129 22.3369L59.6055 22.6591L59.5518 22.9275C59.5518 23.1781 59.6771 23.3034 59.9276 23.3034C59.9992 23.3034 60.1066 23.2676 60.2498 23.196C60.5362 23.1244 60.6973 23.0886 60.7331 23.0886C60.8404 23.1244 61.0731 23.1781 61.4311 23.2497C61.4669 23.2139 61.5385 23.1781 61.6459 23.1423C61.7532 23.1065 61.9322 23.0528 62.1828 22.9812Z" fill="#E62E2E"/>
<path d="M79.2795 30.7669H79.3332C78.6172 31.3039 78.1519 31.6797 77.9371 31.8945C77.9013 31.9661 77.8118 32.1451 77.6686 32.4315C77.6328 32.5388 77.5433 32.6641 77.4001 32.8073C76.9348 33.1295 76.6305 33.3801 76.4873 33.559C76.3442 33.738 75.9862 33.8633 75.4135 33.9349C74.8765 33.8633 74.5722 33.5411 74.5006 32.9684C74.4649 32.8252 74.3575 32.6999 74.1785 32.5925C74.1785 32.5567 74.2322 32.4851 74.3396 32.3778C74.3396 32.3778 74.3754 32.2525 74.447 32.0019C74.4827 31.8945 74.6975 31.6976 75.0913 31.4113C75.1629 31.3397 75.324 31.1965 75.5745 30.9817C75.7535 30.8743 76.0041 30.6953 76.3263 30.4448L76.4873 30.23V30.1226C76.4873 30.051 76.5947 29.9436 76.8095 29.8004L76.9706 29.4783C77.1854 29.1203 77.7223 28.6191 78.5814 27.9748C78.5814 27.9748 79.0826 27.4021 80.0849 26.2566C80.2281 26.1134 80.4965 25.8091 80.8903 25.3438C81.284 24.8784 81.8568 24.2341 82.6085 23.4108C82.6085 23.375 82.7517 23.2497 83.0381 23.0349C83.3244 22.7843 83.6108 22.4622 83.8972 22.0684C84.1836 21.6747 84.6847 21.2809 85.4006 20.8871C86.1523 20.4576 86.7609 20.2428 87.2262 20.2428C87.7274 20.2428 88.1748 20.4934 88.5686 20.9945C88.9624 21.4957 89.1592 22.0505 89.1592 22.6591C89.1592 22.9812 89.0518 23.5361 88.8371 24.3236C88.8013 24.5384 88.6939 24.8784 88.5149 25.3438C88.3717 25.8091 88.2464 26.2029 88.139 26.5251C88.0674 26.5967 88.0138 26.7935 87.978 27.1157C87.8348 28.0106 87.4768 28.9413 86.9041 29.9078C86.9041 29.9794 86.8683 30.1226 86.7967 30.3374L86.5282 31.2502C86.4924 31.3218 86.4745 31.4113 86.4745 31.5187C86.5103 31.626 86.564 31.6797 86.6356 31.6797C86.7788 31.6797 86.9578 31.5186 87.1725 31.1965C87.6737 30.4448 88.1748 29.9436 88.676 29.693C88.8908 29.5499 89.0697 29.3351 89.2129 29.0487C89.3203 28.8697 89.4814 28.637 89.6962 28.3507C89.7678 28.3149 89.8573 28.2433 89.9647 28.1359C90.2152 27.9569 90.609 27.5632 91.1459 26.9546C92.8284 25.4512 94.1349 24.6995 95.0656 24.6995C96.1753 24.6995 96.8733 24.95 97.1597 25.4512C97.2671 25.7375 97.4282 26.0239 97.643 26.3103C98.1799 27.062 98.5558 28.0464 98.7705 29.2635C98.8421 29.4067 99.0748 29.8183 99.4686 30.4985C99.6476 30.8206 99.8981 30.9817 100.22 30.9817C100.65 30.9817 101.044 30.8027 101.402 30.4448C101.437 30.3732 101.491 30.3016 101.563 30.23C101.563 29.7288 102.028 29.4783 102.959 29.4783C103.173 29.4783 103.388 29.6214 103.603 29.9078C103.854 30.1584 103.979 30.409 103.979 30.6595C103.979 31.1607 103.872 31.4829 103.657 31.626C103.442 31.7334 103.227 31.9303 103.012 32.2167V32.163C103.012 32.1272 102.995 32.1093 102.959 32.1093V32.163C102.887 32.3062 102.816 32.4136 102.744 32.4851C102.708 32.5209 102.601 32.6283 102.422 32.8073C102.028 33.0937 101.777 33.3085 101.67 33.4516C101.67 33.4516 101.598 33.5232 101.455 33.6664L101.294 33.8812L101.187 33.9886L100.757 34.2571C100.721 34.2929 100.596 34.3824 100.381 34.5255C99.5581 35.0983 98.7169 35.3668 97.8577 35.331C97.1776 35.1162 96.7481 34.8656 96.5691 34.5792C96.3901 34.2929 96.1216 33.9349 95.7637 33.5053L95.4952 33.1832C95.4236 33.04 95.2804 32.6999 95.0656 32.163C94.9582 31.8766 94.6719 31.5008 94.2065 31.0354C94.0633 30.9638 93.938 30.7848 93.8307 30.4985C93.5801 30.1047 93.3116 29.9078 93.0252 29.9078C92.8463 29.9078 92.3809 30.1584 91.6292 30.6595C90.9133 31.1607 90.4658 31.5187 90.2868 31.7334C90.1436 31.9482 90.0183 32.0914 89.911 32.163L89.8573 32.2704L89.3203 32.4851C88.8908 32.7357 88.5686 33.0937 88.3538 33.559C87.8885 34.2392 87.5305 34.6866 87.2799 34.9014C87.0294 35.1162 86.6714 35.492 86.206 36.029L85.5617 36.5122L85.1322 37.0492L84.6489 37.425C84.5415 37.4608 84.4162 37.6219 84.273 37.9083C84.1299 38.1589 84.0404 38.2842 84.0046 38.2842C83.5034 38.5347 83.1634 38.6779 82.9844 38.7137C82.8412 38.7495 82.7517 38.7853 82.7159 38.8211C82.5727 38.8569 82.4653 38.8748 82.3937 38.8748C81.821 38.839 81.4451 38.7853 81.2661 38.7137C80.944 38.5347 80.7829 38.2484 80.7829 37.8546V37.7472C80.8187 37.6398 80.8366 37.5503 80.8366 37.4787L80.7829 36.727C80.8903 36.2975 81.0156 35.8321 81.1588 35.331C81.4809 34.5076 81.642 34.0423 81.642 33.9349C81.8568 32.8968 82.1074 31.984 82.3937 31.1965C82.5727 30.7311 82.6622 30.3911 82.6622 30.1763C82.6622 30.1047 82.7338 29.9078 82.877 29.5856C82.9486 29.4783 83.0202 29.2277 83.0918 28.8339C83.1276 28.7265 83.1634 28.5834 83.1992 28.4044C83.2349 28.3686 83.2528 28.3328 83.2528 28.297C83.2528 28.0106 83.0739 27.8674 82.7159 27.8674C82.3221 27.8674 81.9284 28.118 81.5346 28.6191C81.4988 28.6907 81.2125 28.995 80.6755 29.532L80.3533 29.8541L80.0849 30.1763C79.9417 30.3195 79.6732 30.5164 79.2795 30.7669Z" fill="#E62E2E"/>
<path d="M104.429 32.0556L104.214 32.4315C104.214 32.503 104.124 32.6283 103.945 32.8073C103.48 33.1295 103.176 33.3801 103.033 33.559C102.889 33.738 102.531 33.8633 101.959 33.9349C101.422 33.8633 101.117 33.5411 101.046 32.9684C101.01 32.8252 100.903 32.6999 100.724 32.5925C100.724 32.5567 100.777 32.4851 100.885 32.3778C100.885 32.1272 101.135 31.8229 101.636 31.465C101.636 31.465 101.798 31.3039 102.12 30.9817C102.191 30.9101 102.317 30.8385 102.496 30.7669C102.675 30.6595 102.8 30.57 102.871 30.4985C102.907 30.3911 102.925 30.3016 102.925 30.23L103.194 29.9615C103.265 29.9615 103.319 29.9078 103.355 29.8004L103.516 29.4783C103.659 29.2277 104.106 28.7802 104.858 28.1359C105.324 27.7063 105.986 27.0083 106.845 26.0418L107.06 25.7196C107.239 25.4333 107.489 25.0574 107.811 24.5921C107.99 24.4131 108.08 24.2878 108.08 24.2162L108.134 24.1088C108.134 24.1088 108.241 23.9477 108.456 23.6256C108.527 23.5182 108.688 23.3571 108.939 23.1423C109.368 22.3548 109.959 21.2988 110.711 19.9743C110.782 19.9027 111.158 19.2405 111.838 17.9876C111.91 17.8087 111.982 17.6476 112.053 17.5044L112.107 17.4507C112 17.3075 111.874 17.2359 111.731 17.2359L111.355 17.2896L110.818 17.2359H110.55C110.442 17.2001 110.353 17.1822 110.281 17.1822L110.228 17.2359C110.156 17.2717 110.084 17.2896 110.013 17.2896L108.993 17.2359C108.42 17.2359 107.668 17.1822 106.737 17.0748H106.684C106.505 17.1106 106.29 17.1464 106.039 17.1822C106.039 17.1822 106.022 17.1643 105.986 17.1285L105.771 16.9674C105.699 16.9674 105.628 16.9496 105.556 16.9138C105.485 16.878 105.359 16.8422 105.18 16.8064L104.912 16.7527C104.733 16.7169 104.608 16.4484 104.536 15.9473C104.608 14.3722 104.661 13.5668 104.697 13.531C104.84 13.0657 105.001 12.7972 105.18 12.7256C105.359 12.654 105.717 12.6361 106.254 12.6719L107.006 12.7256L107.758 12.6719C108.008 12.6361 108.205 12.6719 108.348 12.7793C108.384 12.8151 108.438 12.833 108.509 12.833C108.545 12.833 108.599 12.8151 108.67 12.7793C108.742 12.7077 108.867 12.6719 109.046 12.6719L109.905 12.7793L110.55 12.7256C110.621 12.7256 110.747 12.7614 110.926 12.833L111.14 12.8867C111.212 12.9225 111.284 12.9404 111.355 12.9404C111.427 12.9404 111.713 12.8509 112.214 12.6719C112.357 12.6361 112.501 12.6003 112.644 12.5645C112.751 12.5645 112.877 12.6003 113.02 12.6719C113.163 12.7435 113.27 12.7793 113.342 12.7793C113.879 12.6719 114.219 12.5466 114.362 12.4034C114.362 12.4034 114.487 12.1349 114.738 11.598C114.845 11.3832 114.971 11.1327 115.114 10.8463C115.114 10.7747 115.346 10.2556 115.812 9.28914C115.955 9.07436 116.188 8.7522 116.51 8.32264C116.689 7.96468 117.065 7.7857 117.637 7.7857C117.852 7.7857 118.156 7.98258 118.55 8.37633C118.801 8.62691 118.926 9.03857 118.926 9.61131C118.926 9.89768 118.837 10.2377 118.658 10.6315C118.479 11.0253 118.389 11.3116 118.389 11.4906L118.228 11.9739C118.121 12.1886 118.067 12.3497 118.067 12.4571C118.067 12.5287 118.174 12.6361 118.389 12.7793C118.64 12.9225 118.783 13.4236 118.819 14.2827L118.765 14.9271C118.729 15.4998 118.693 16.0546 118.658 16.5916C118.658 16.8064 118.586 16.9675 118.443 17.0748C118.3 17.1822 117.727 17.3075 116.725 17.4507C116.331 17.4507 116.134 17.9161 116.134 18.8468C116.062 18.9899 115.955 19.2942 115.812 19.7596C115.74 20.0459 115.651 20.386 115.543 20.7798C115.543 20.8156 115.508 20.9587 115.436 21.2093C115.364 21.4241 115.221 21.8894 115.006 22.6054L114.738 23.5719C114.702 23.7509 114.613 24.0372 114.469 24.431C114.326 25.2901 114.112 26.3103 113.825 27.4916C113.503 28.9234 113.306 30.1584 113.234 31.1965C113.234 31.2681 113.181 31.5723 113.073 32.1093C113.145 33.0042 113.288 33.4516 113.503 33.4516C113.789 33.4516 114.165 33.1653 114.631 32.5925C114.738 32.5209 114.899 32.3957 115.114 32.2167L115.973 31.465C116.188 31.286 116.438 31.0891 116.725 30.8743C116.868 30.7669 117.1 30.6237 117.423 30.4448C117.458 30.3732 117.512 30.3016 117.584 30.23C117.584 29.9078 118.049 29.6572 118.98 29.4783C119.195 29.4783 119.409 29.6214 119.624 29.9078C119.875 30.1584 120 30.409 120 30.6595C120 31.1607 119.893 31.4829 119.678 31.626C119.463 31.7334 119.248 31.9303 119.033 32.2167V32.163C119.033 32.1272 119.016 32.1093 118.98 32.1093V32.163C118.944 32.2346 118.855 32.3599 118.711 32.5388L118.443 32.8073C118.049 33.0937 117.799 33.3085 117.691 33.4516L117.476 33.6664L117.315 33.8812C117.315 33.8812 117.279 33.917 117.208 33.9886L116.778 34.2571C116.743 34.2571 116.689 34.2929 116.617 34.3645L116.188 34.8477C116.08 34.9551 115.758 35.2594 115.221 35.7605C115.114 35.8321 114.863 36.1006 114.469 36.5659C114.434 36.6375 113.771 37.2103 112.483 38.2842C111.767 38.8927 111.212 39.197 110.818 39.197C110.747 39.197 110.586 39.1075 110.335 38.9285C110.228 38.8569 109.995 38.7316 109.637 38.5526C109.136 38.3378 108.814 37.9799 108.67 37.4787C108.599 37.2282 108.563 36.6554 108.563 35.7605C108.563 35.5099 108.599 35.1699 108.67 34.7403V33.6127C108.814 32.7894 108.921 32.2525 108.993 32.0019C109.064 31.7513 109.1 31.465 109.1 31.1428C109.1 31.1786 109.243 30.3374 109.53 28.6191L109.691 27.6526C109.726 27.5453 109.888 27.1873 110.174 26.5788C110.21 26.543 110.228 26.5072 110.228 26.4714C110.228 26.3282 110.156 26.2566 110.013 26.2566C109.905 26.2566 109.709 26.4893 109.422 26.9546C109.028 27.3484 108.688 27.6705 108.402 27.9211C108.295 28.1359 108.241 28.2612 108.241 28.297C108.062 28.4402 107.543 28.9234 106.684 29.7467C106.612 29.8183 106.433 30.0331 106.147 30.3911L106.039 30.5522L104.697 31.7334C104.482 31.9124 104.393 32.0198 104.429 32.0556Z" fill="#E62E2E"/>
</svg>
