<svg width="138" height="120" viewBox="0 0 138 120" fill="none" xmlns="http://www.w3.org/2000/svg">
<g clip-path="url(#clip0_223_1795)">
<path d="M53.2526 109.935L137.196 -0.00390625L45.0547 76.2087L53.2526 109.935Z" fill="#912828"/>
<path d="M137.197 -0.00390625L0.800781 57.2929L45.0555 76.2087L53.2534 109.935L59.5882 85.8971L105.801 119.996L137.197 -0.00390625Z" fill="#C73736"/>
<path d="M45.0547 76.2087L137.196 -0.00390625L59.5873 85.8971L53.2526 109.935L45.0547 76.2087Z" fill="#912727"/>
<path d="M105.802 119.997L88.0867 54.3574L59.5898 85.8985L105.802 119.997Z" fill="#C73736"/>
<path style="mix-blend-mode:multiply" opacity="0.7" d="M105.802 119.997L88.0867 54.3574L59.5898 85.8985L105.802 119.997Z" fill="url(#paint0_linear_223_1795)"/>
<path d="M0.800781 57.292L78.4408 48.5889L45.0555 76.2078L0.800781 57.292Z" fill="#C73736"/>
<path style="mix-blend-mode:multiply" opacity="0.7" d="M0.800781 57.292L78.4408 48.5889L45.0555 76.2078L0.800781 57.292Z" fill="url(#paint1_linear_223_1795)"/>
<path style="mix-blend-mode:multiply" d="M78.4399 48.5889L80 63.3047L59.5873 85.8962L53.2526 109.934L45.0547 76.2078L78.4399 48.5889Z" fill="url(#paint2_linear_223_1795)"/>
<path style="mix-blend-mode:multiply" opacity="0.7" d="M78.4399 48.5889L80 63.3047L59.5873 85.8962L53.2526 109.934L45.0547 76.2078L78.4399 48.5889Z" fill="url(#paint3_linear_223_1795)"/>
<path d="M45.0547 76.2083C48.8252 72.9493 52.6336 69.7409 56.4231 66.5009L67.8547 56.8756L90.8189 37.7388L113.922 18.7725L125.524 9.34932C129.415 6.23564 133.28 3.09669 137.189 0.00195312C133.419 3.2609 129.61 6.46932 125.821 9.70932L114.389 19.3346L91.4252 38.4714L68.3221 57.4377L56.72 66.8609C52.8294 69.9746 48.9642 73.1135 45.0547 76.2083Z" fill="#DA7B7B"/>
<g opacity="0.5">
<path d="M78.4414 48.5886C78.9467 51.0139 79.2625 53.4644 79.534 55.9149C79.7867 58.3655 79.9888 60.8286 79.9951 63.3044C79.4898 60.8791 79.174 58.4349 78.9025 55.9781C78.6561 53.5276 78.4477 51.0644 78.4414 48.5886Z" fill="#DA7B7B"/>
</g>
</g>
<defs>
<linearGradient id="paint0_linear_223_1795" x1="98.1414" y1="86.8837" x2="87.8404" y2="89.3911" gradientUnits="userSpaceOnUse">
<stop stop-color="#C73736"/>
<stop offset="0.01" stop-color="#C73736" stop-opacity="0.98"/>
<stop offset="0.2" stop-color="#C73736" stop-opacity="0.69"/>
<stop offset="0.38" stop-color="#C73736" stop-opacity="0.44"/>
<stop offset="0.55" stop-color="#C73736" stop-opacity="0.25"/>
<stop offset="0.71" stop-color="#C73736" stop-opacity="0.11"/>
<stop offset="0.85" stop-color="#C73736" stop-opacity="0.03"/>
<stop offset="0.95" stop-color="#C73736" stop-opacity="0"/>
</linearGradient>
<linearGradient id="paint1_linear_223_1795" x1="38.7903" y1="47.4647" x2="40.7671" y2="60.4752" gradientUnits="userSpaceOnUse">
<stop stop-color="#C73736"/>
<stop offset="0.47" stop-color="#C73736" stop-opacity="0.47"/>
<stop offset="0.8" stop-color="#C73736" stop-opacity="0.13"/>
<stop offset="0.95" stop-color="#C73736" stop-opacity="0"/>
</linearGradient>
<linearGradient id="paint2_linear_223_1795" x1="68.581" y1="91.6689" x2="63.0168" y2="67.8394" gradientUnits="userSpaceOnUse">
<stop stop-color="#912727"/>
<stop offset="0.99" stop-color="#912727" stop-opacity="0"/>
</linearGradient>
<linearGradient id="paint3_linear_223_1795" x1="91.4821" y1="74.831" x2="75.8378" y2="77.5341" gradientUnits="userSpaceOnUse">
<stop stop-color="#912727"/>
<stop offset="0.99" stop-color="#912727" stop-opacity="0"/>
</linearGradient>
<clipPath id="clip0_223_1795">
<rect width="136.396" height="120" fill="white" transform="translate(0.800781)"/>
</clipPath>
</defs>
</svg>
